<?xml version="1.0" encoding="UTF-8" standalone="no"?>
<!-- Created with Inkscape (http://www.inkscape.org/) -->

<svg
   xmlns:dc="http://purl.org/dc/elements/1.1/"
   xmlns:cc="http://creativecommons.org/ns#"
   xmlns:rdf="http://www.w3.org/1999/02/22-rdf-syntax-ns#"
   xmlns:svg="http://www.w3.org/2000/svg"
   xmlns="http://www.w3.org/2000/svg"
   xmlns:sodipodi="http://sodipodi.sourceforge.net/DTD/sodipodi-0.dtd"
   xmlns:inkscape="http://www.inkscape.org/namespaces/inkscape"
   width="311.75336"
   height="498.41931"
   id="svg2"
   version="1.1"
   inkscape:version="0.48.1 r9760"
   sodipodi:docname="idris.svg">
  <defs
     id="defs4" />
  <sodipodi:namedview
     id="base"
     pagecolor="#ffffff"
     bordercolor="#666666"
     borderopacity="1.0"
     inkscape:pageopacity="0.0"
     inkscape:pageshadow="2"
     inkscape:zoom="1.4283557"
     inkscape:cx="-118.73542"
     inkscape:cy="352.68403"
     inkscape:document-units="px"
     inkscape:current-layer="layer1"
     showgrid="false"
     inkscape:window-width="1813"
     inkscape:window-height="1033"
     inkscape:window-x="98"
     inkscape:window-y="0"
     inkscape:window-maximized="0"
     fit-margin-top="0"
     fit-margin-left="0"
     fit-margin-right="0"
     fit-margin-bottom="0" />
  <metadata
     id="metadata7">
    <rdf:RDF>
      <cc:Work
         rdf:about="">
        <dc:format>image/svg+xml</dc:format>
        <dc:type
           rdf:resource="http://purl.org/dc/dcmitype/StillImage" />
        <dc:title></dc:title>
      </cc:Work>
    </rdf:RDF>
  </metadata>
  <g
     inkscape:label="Layer 1"
     inkscape:groupmode="layer"
     id="layer1"
     transform="translate(-192.8276,-293.38639)">
    <path
       inkscape:connector-curvature="0"
       id="path3058"
       d="m 324.39557,791.52836 c -0.37206,-0.37205 -13.9654,-0.65683 -30.20743,-0.63283 -26.15194,0.0386 -29.76349,-0.1475 -31.5632,-1.62676 -2.03211,-1.67027 -2.03207,-1.67071 0.6613,-6.67038 l 2.69354,-5 0.29992,-32 c 0.16496,-17.6 0.54766,-33.02173 0.85044,-34.27052 1.10791,-4.56936 -0.7139,-5.7672 -10.99488,-7.22905 -11.32749,-1.61067 -13.65199,-2.81712 -11.6709,-6.05742 0.95545,-1.56275 1.02614,-2.48477 0.25,-3.26091 -0.59515,-0.59515 -1.0821,-4.26697 -1.0821,-8.15959 0,-4.64028 -0.51128,-7.80746 -1.48472,-9.19724 -0.8166,-1.16586 -1.46188,-3.85348 -1.43394,-5.97251 0.0279,-2.11902 -0.21687,-5.42776 -0.544,-7.35276 -0.82217,-4.83811 2.8245,-11.16244 6.97262,-12.09245 6.73356,-1.50965 15.50569,-7.65703 15.47498,-10.84464 -0.008,-0.8596 -0.66353,-3.36291 -1.4561,-5.56291 -0.79258,-2.2 -1.46081,-6.54305 -1.48495,-9.65122 -0.0424,-5.46046 0.0793,-5.72394 3.60668,-7.80512 2.00782,-1.18464 4.93093,-2.40996 6.49581,-2.72294 3.72006,-0.74401 9.48546,-7.19936 10.72997,-12.01405 0.81712,-3.16123 1.6767,-19.73576 1.24579,-24.02149 -0.24137,-2.40061 -4.80602,-3.67436 -15.62214,-4.35932 -6.05,-0.38313 -15.99677,-1.73951 -22.10393,-3.01419 l -11.10392,-2.31758 -4.30937,3.68866 c -3.8936,3.33277 -4.69865,3.62641 -8.344,3.0435 -2.21904,-0.35484 -6.53305,-1.61079 -9.5867,-2.79099 -6.84903,-2.64709 -7.93811,-5.56518 -3.09449,-8.29139 1.70407,-0.95913 3.34515,-2.69916 3.64685,-3.86673 0.58624,-2.26868 -1.89206,-11.81385 -3.60241,-13.8747 -0.56616,-0.68218 -1.07017,-6.30343 -1.12001,-12.49167 -0.0498,-6.18823 -0.46377,-12.55241 -0.91983,-14.1426 -0.9899,-3.45159 -4.05059,-7.63772 -9.37977,-12.82878 -3.77893,-3.681 -3.8714,-3.92753 -2.61285,-6.96594 1.41718,-3.42137 3.70128,-5.07345 7.01435,-5.07345 1.16347,0 3.33055,-0.61418 4.81574,-1.36484 1.48519,-0.75067 7.31284,-1.67127 12.95034,-2.04579 9.50115,-0.63119 10.25,-0.54773 10.25,1.14234 0,1.0028 0.70363,2.82785 1.56362,4.05566 1.19088,1.70022 1.80363,6.93822 2.57039,21.97251 1.32877,26.05398 -0.4073,24.30815 24.02981,24.16494 16.59361,-0.0972 18.17465,-0.26329 20.01322,-2.10186 1.42705,-1.42705 1.81402,-2.72243 1.35711,-4.5429 -0.67473,-2.68837 1.18866,-9.34148 4.97982,-17.78006 1.23548,-2.75 2.82437,-6.575 3.53087,-8.5 0.7065,-1.925 1.84062,-4.175 2.52027,-5 3.20055,-3.88504 4.39862,-9.45815 4.85028,-22.56227 0.25462,-7.38753 0.81435,-13.99569 1.24383,-14.6848 0.75637,-1.21361 1.21794,-3.86771 3.43525,-19.75293 1.08502,-7.77333 0.49357,-20.81196 -1.01238,-22.31791 -1.12157,-1.12157 -4.85319,0.88802 -10.25973,5.52515 -2.3773,2.03899 -6.55739,5.18899 -9.2891,7 -2.73171,1.81102 -6.48245,5.31776 -8.33499,7.79276 -1.85254,2.475 -4.5675,4.87613 -6.03326,5.33585 -7.3866,2.31673 -9.1896,2.66415 -13.82605,2.66415 -2.76047,0 -8.538,-0.9 -12.83896,-2 -4.30096,-1.1 -10.91796,-2 -14.70445,-2 -3.78648,0 -9.75022,-0.71984 -13.25275,-1.59965 -8.1117,-2.03759 -12.59922,-6.93211 -13.33016,-14.53917 -0.45673,-4.7533 -0.39285,-4.88794 2.98993,-6.30135 1.90116,-0.79436 4.03842,-2.14528 4.74948,-3.00205 0.71106,-0.85678 2.47524,-1.57373 3.92039,-1.59322 1.44516,-0.0195 3.75256,-0.67854 5.12756,-1.46456 1.375,-0.78602 3.52364,-1.44508 4.77475,-1.46456 1.45072,-0.0226 2.5997,-0.89012 3.17178,-2.3948 0.57012,-1.49954 1.99418,-2.57878 3.90765,-2.96148 1.74449,-0.34889 5.58914,-3.03653 9.1418,-6.39064 4.86865,-4.59656 6.33265,-6.6976 7.10965,-10.20329 0.93941,-4.23845 0.84126,-4.55794 -2.45755,-8 -1.88982,-1.97187 -4.38816,-5.48846 -5.55187,-7.81462 -1.18385,-2.36645 -3.43294,-4.9105 -5.10602,-5.77568 -3.90044,-2.017 -3.89216,-4.97714 0.0196,-6.99999 2.95807,-1.52967 2.98314,-1.60795 1.45914,-4.55505 -1.74835,-3.3809 -1.25291,-4.93989 1.56985,-4.93989 3.21988,0 9.96122,-3.12884 9.96122,-4.62328 0,-0.77336 -1.43262,-2.27734 -3.1836,-3.34218 -1.84757,-1.12357 -3.63112,-3.31314 -4.25,-5.21748 -0.60999,-1.87701 -2.44088,-4.14502 -4.27788,-5.29924 -3.69017,-2.31859 -3.92873,-3.15292 -1.62834,-5.69481 1.56764,-1.73223 1.42829,-2.04855 -2.5,-5.67513 -2.2881,-2.11236 -4.16018,-4.33939 -4.16018,-4.94896 0,-1.65849 6.40251,-2.53953 13.87432,-1.90922 7.48543,0.63145 16.12568,3.90166 16.12568,6.10333 0,0.80526 0.67325,2.13737 1.49612,2.96023 0.82286,0.82287 1.95271,2.69705 2.51077,4.16486 l 1.01466,2.66875 7.06482,-6.26344 c 7.50141,-6.65051 9.26046,-7.32427 22.41363,-8.5851 3.3,-0.31633 6.50504,-0.97928 7.12231,-1.47321 0.61727,-0.49394 1.43046,-4.43059 1.80708,-8.74813 0.63044,-7.22725 0.94535,-8.08076 3.96912,-10.7578 1.80638,-1.59926 3.4682,-3.34879 3.69291,-3.88785 0.22472,-0.53906 3.36863,-2.46865 6.98646,-4.28797 4.93243,-2.48041 7.26652,-3.13504 9.33077,-2.61694 3.70291,0.92937 4.19633,2.77522 1.68472,6.30245 -3.19932,4.49302 -2.67263,5.66995 3.65663,8.1709 8.02319,3.1703 8.22616,3.5312 3.96258,7.04561 -2.04192,1.68312 -3.71258,3.62706 -3.71258,4.31987 0,0.69281 1.6875,2.34831 3.75,3.67888 2.90945,1.87697 3.8218,3.16829 4.07033,5.76108 0.19285,2.01185 -0.29658,4.02354 -1.22976,5.0547 -2.48228,2.74289 -0.0224,5.03656 11.8978,11.09417 10.66407,5.41924 13.51163,8.10761 13.51163,12.75625 0,1.01731 0.39564,2.27716 0.8792,2.79966 0.48356,0.5225 1.42777,2.66571 2.09824,4.7627 1.03824,3.2472 0.982,4.07464 -0.3792,5.57874 -1.80609,1.99572 -2.09293,4.68479 -0.59824,5.60856 1.87733,1.16025 1.14827,6.31817 -0.98895,6.99649 -2.30005,0.73001 -9.01105,10.37402 -9.01105,12.94929 0,0.95632 -0.9,2.88293 -2,4.28135 -2.60198,3.30788 -2.5228,4.12361 0.51229,5.27754 1.38176,0.52535 3.04396,2.12205 3.69377,3.54823 1.07719,2.36418 0.89957,2.81368 -2.01229,5.09256 -2.49497,1.9526 -3.19377,3.25672 -3.19377,5.96026 0,4.59073 4.19841,12.68731 7.97237,15.37461 1.6652,1.18572 3.02763,2.74408 3.02763,3.46302 0,0.71894 -2.5875,2.6008 -5.75,4.18191 -4.80427,2.40192 -5.72957,3.28592 -5.62581,5.37474 0.12773,2.57131 1.60464,7.22855 3.96402,12.5 3.30608,7.38662 2.77565,9.54239 -2.66677,10.83814 -2.29852,0.54723 -4.92144,4.12281 -4.92144,6.70891 0,1.81421 4.00986,4.95295 6.32759,4.95295 3.86295,0 15.04713,4.98069 17.00582,7.57326 1.00837,1.33471 2.80837,2.44105 4,2.45854 1.19162,0.0175 3.0401,0.6925 4.10772,1.5 4.54315,3.43627 10.52486,-0.47033 10.59067,-6.91666 0.0175,-1.71333 0.68281,-3.9754 1.47847,-5.02683 0.79986,-1.05696 1.19647,-2.90857 0.88706,-4.14134 -0.35947,-1.43225 0.36549,-3.6951 2.02707,-6.3272 5.04364,-7.98966 15.5461,-9.32549 26.25986,-3.34005 3.52024,1.96665 5.56955,1.45402 10.51096,-2.62933 4.13592,-3.41772 5.46043,-3.92413 11.80625,-4.51391 6.25666,-0.58149 7.46686,-0.41325 9.70797,1.34961 1.40815,1.10765 3.12943,2.01391 3.82506,2.01391 0.69563,0 5.39244,3.86154 10.43736,8.5812 5.04491,4.71966 10.71507,9.2257 12.60035,10.01342 1.88529,0.78772 3.42779,2.02872 3.42779,2.75777 0,1.64044 4.13284,7.32208 9.75,13.40387 2.48448,2.68999 4.25,5.57604 4.25,6.94739 0,1.58211 0.81393,2.65531 2.5,3.29635 2.0198,0.76793 2.5,1.63356 2.5,4.50663 0,2.18843 0.55919,3.77072 1.45391,4.11406 3.02664,1.16143 5.54609,7.27955 5.54609,13.46785 0,4.38794 0.39828,6.12707 1.5,6.54983 1.68142,0.64522 2.04493,4.90681 0.5,5.86163 -0.55,0.33992 -1,2.42106 -1,4.62476 0,5.45925 -1.4698,7.87647 -4.78518,7.86966 -3.43105,-0.007 -10.2147,-1.86076 -10.2152,-2.79142 -8.8e-4,-1.60608 -10.91306,-12.37453 -11.91328,-11.75636 -1.7503,1.08175 -1.25474,5.48142 1.08663,9.64733 2.10938,3.75314 2.11948,3.92539 0.34501,5.88616 -1.00537,1.11093 -2.82663,2.01987 -4.04724,2.01987 -3.61718,0 -10.26177,-2.7253 -13.13084,-5.38565 -3.7258,-3.45475 -8.79988,-6.03555 -10.54774,-5.36484 -1.09441,0.41997 -1.76972,3.83281 -2.64854,13.38507 -0.99432,10.80774 -1.57162,13.41378 -3.67579,16.5934 -1.37291,2.07461 -2.67872,3.77202 -2.90179,3.77202 -0.22307,0 -2.75115,-3.2625 -5.61797,-7.25 -5.96586,-8.298 -10.91366,-13.67214 -12.62998,-13.71825 -0.65004,-0.0175 -2.14319,1.31825 -3.31809,2.96825 -2.60919,3.66427 -7.65406,4.14473 -10.5,1 -0.99549,-1.1 -2.41523,-2 -3.15499,-2 -2.38681,0 -1.43654,3.18232 2.31876,7.76517 l 3.66377,4.47115 -1.85971,3.45327 c -1.62019,3.00851 -1.68198,3.73386 -0.4798,5.63184 3.94514,6.22854 4.31369,7.68769 2.45927,9.7368 -0.9665,1.06797 -2.51779,1.94177 -3.4473,1.94177 -0.92951,0 -2.49412,0.88852 -3.4769,1.97448 -1.53212,1.69296 -1.61247,2.39554 -0.56362,4.9277 1.55976,3.7656 3.87711,5.82493 7.04052,6.25664 l 2.5,0.34118 0.5,13.88571 0.5,13.88571 11,5.68392 c 12.19042,6.29902 13.89639,8.21003 12.98412,14.54466 -1.20043,8.33548 -1.41724,20.1196 -0.42592,23.14931 0.56674,1.73213 0.7524,4.25714 0.41257,5.61114 -0.62779,2.50132 -9.77542,9.85864 -16.47077,13.24723 -1.925,0.97426 -3.79392,2.22714 -4.15316,2.78417 -1.04675,1.6231 -0.93228,65.61633 0.12897,72.09633 0.53037,3.2385 1.65279,6.64893 2.49425,7.57874 3.26355,3.60617 1.12758,6.93946 -4.55788,7.11281 -1.8767,0.0572 -21.86218,0.0224 -44.41218,-0.0773 -22.55,-0.0997 -42.13855,0.10788 -43.53011,0.46133 -1.39157,0.35346 -2.83453,0.33824 -3.20658,-0.0338 z"
       style="fill:#000000;fill-opacity:0" />
    <path
       inkscape:connector-curvature="0"
       id="path3056"
       d="m 324.39808,791.53088 c -0.37067,-0.37067 -13.81215,-0.65798 -29.86995,-0.63846 -30.06667,0.0366 -32.89587,-0.30553 -32.89587,-3.97742 0,-0.93626 0.98346,-3.36913 2.18547,-5.40638 2.10672,-3.57063 2.19585,-4.86089 2.47368,-35.80716 0.15852,-17.65669 0.53595,-33.1248 0.83873,-34.37359 1.10791,-4.56936 -0.7139,-5.7672 -10.99488,-7.22905 -11.29451,-1.60598 -13.36559,-2.64635 -11.43192,-5.74265 0.92366,-1.479 1.00223,-2.48696 0.26711,-3.42658 -0.57281,-0.73216 -1.11056,-4.45123 -1.19499,-8.26459 -0.0928,-4.18998 -0.73778,-7.8251 -1.63012,-9.18699 -0.81214,-1.23948 -1.44684,-3.96946 -1.41045,-6.06661 0.0364,-2.09716 -0.23996,-5.22154 -0.61413,-6.94307 -1.0395,-4.78277 3.12658,-11.76666 7.26434,-12.17774 1.70402,-0.1693 3.63683,-0.9568 4.29513,-1.75 0.65831,-0.79321 1.80116,-1.4422 2.53968,-1.4422 0.73852,0 2.93342,-1.39662 4.87755,-3.10359 3.66689,-3.21957 4.68805,-7.34316 2.38803,-9.64318 -0.63072,-0.63072 -1.35999,-4.46925 -1.6206,-8.53007 l -0.47383,-7.38329 3.77117,-2.22505 c 2.07415,-1.22378 5.05153,-2.48112 6.61641,-2.7941 3.72989,-0.74597 9.49356,-7.21108 10.71058,-12.01405 0.53052,-2.09367 1.16287,-8.45261 1.40522,-14.13097 0.43122,-10.1033 0.38765,-10.35903 -2.03517,-11.94653 -1.694,-1.10995 -5.9891,-1.83974 -13.60142,-2.31106 -6.11907,-0.37887 -16.12236,-1.73176 -22.22952,-3.00644 l -11.10392,-2.31758 -4.30937,3.68866 c -3.8936,3.33277 -4.69865,3.62641 -8.344,3.0435 -2.21904,-0.35484 -6.53305,-1.61292 -9.5867,-2.79573 -4.61986,-1.78947 -5.55208,-2.55798 -5.55208,-4.57707 0,-1.6743 0.87235,-2.84461 2.81412,-3.77527 1.54776,-0.74183 3.08054,-2.04309 3.40619,-2.89169 0.71211,-1.85574 -1.4185,-10.95104 -3.25151,-13.8803 -0.85255,-1.36241 -1.45079,-6.86786 -1.71261,-15.76063 -0.38868,-13.20178 -0.49346,-13.76189 -3.07928,-16.46091 -1.4723,-1.53675 -2.67691,-3.20719 -2.67691,-3.7121 0,-0.50491 -1.88588,-2.54225 -4.19085,-4.52743 -4.10446,-3.53502 -4.16347,-3.6755 -2.86285,-6.81549 1.43887,-3.47371 3.7107,-5.12963 7.03762,-5.12963 1.16347,0 3.33055,-0.61418 4.81574,-1.36484 1.48519,-0.75067 7.31284,-1.67127 12.95034,-2.04579 l 10.25,-0.68094 0,2.42334 c 0,1.33284 0.63897,2.95364 1.41993,3.60178 1.55422,1.28988 2.28459,7.97708 3.08443,28.24071 0.27515,6.97084 0.78561,13.41781 1.13434,14.3266 1.12212,2.92418 5.18709,3.51975 23.37227,3.42431 16.09719,-0.0845 17.99654,-0.27598 19.52877,-1.96908 1.17468,-1.29801 1.49069,-2.69873 1.02628,-4.54908 -0.71006,-2.8291 1.07285,-9.2816 4.94795,-17.90701 1.23548,-2.75 2.82309,-6.575 3.52802,-8.5 0.70493,-1.925 2.10886,-4.429 3.11985,-5.56445 1.01099,-1.13545 1.83816,-2.73295 1.83816,-3.55 0,-0.81705 0.42926,-1.91481 0.95391,-2.43946 0.52465,-0.52465 1.171,-7.36127 1.43634,-15.19248 0.26533,-7.83121 0.83509,-14.80445 1.26613,-15.49609 0.75907,-1.21798 1.22007,-3.86719 3.43809,-19.75752 1.08596,-7.78005 0.49316,-20.81237 -1.0153,-22.32083 -1.14509,-1.14509 -4.33182,0.61196 -11.28056,6.21971 -3.13576,2.53062 -7.53582,5.84329 -9.77792,7.36149 -2.24209,1.51821 -5.51187,4.79671 -7.26617,7.28556 -1.93707,2.74814 -4.18413,4.72118 -5.72208,5.02431 -1.39284,0.27452 -3.91439,0.93352 -5.60344,1.46444 -4.82254,1.51589 -12.42614,1.13998 -20.929,-1.03468 -4.30096,-1.1 -10.91796,-2 -14.70445,-2 -3.78648,0 -9.75022,-0.71984 -13.25275,-1.59965 -8.1117,-2.03759 -12.59922,-6.93211 -13.33016,-14.53917 -0.45673,-4.7533 -0.39285,-4.88794 2.98993,-6.30135 1.90116,-0.79436 4.03842,-2.14528 4.74948,-3.00205 0.71106,-0.85678 2.47524,-1.57373 3.92039,-1.59322 1.44516,-0.0195 3.75256,-0.67854 5.12756,-1.46456 1.375,-0.78602 3.72893,-1.44508 5.23095,-1.46456 2.03077,-0.0264 2.88482,-0.64852 3.3311,-2.42666 0.39755,-1.58394 1.53031,-2.57725 3.35532,-2.94225 2.92487,-0.58498 10.01405,-6.03834 13.33047,-10.25448 1.09545,-1.39263 2.40674,-4.3792 2.914,-6.63682 0.86878,-3.86668 0.72366,-4.31271 -2.50217,-7.69 -1.88345,-1.97187 -4.23359,-5.33582 -5.22253,-7.47544 -0.99778,-2.15872 -3.27557,-4.76194 -5.11761,-5.84877 -4.15876,-2.45373 -4.28018,-5.21289 -0.31953,-7.26102 3.46222,-1.79038 3.4783,-1.84038 1.54246,-4.79486 -1.80473,-2.75436 -0.93544,-4.21666 2.95754,-4.97513 8.90114,-1.7342 11.44577,-5.52227 5.3739,-7.99986 -2.17204,-0.88628 -3.46911,-2.33139 -4.25,-4.73505 -0.66703,-2.05317 -2.42938,-4.27971 -4.33538,-5.47728 -3.71868,-2.3365 -3.93324,-3.14547 -1.53852,-5.80074 1.68831,-1.87201 1.60018,-2.06963 -2.5,-5.60601 -2.3375,-2.01608 -4.25,-4.19544 -4.25,-4.84303 0,-1.72166 6.28818,-2.61829 13.87432,-1.97834 8.24711,0.69571 16.12568,3.88109 16.12568,6.51978 0,1.0343 0.9,2.69503 2,3.69052 1.1,0.99549 2,2.38867 2,3.09597 0,3.03687 2.23154,2.04807 8.16956,-3.61992 3.48174,-3.3234 7.45544,-6.25976 8.83044,-6.52523 1.375,-0.26548 4.41896,-0.92551 6.76435,-1.46675 2.34539,-0.54124 6.22779,-0.98407 8.62756,-0.98407 2.39976,0 4.81066,-0.5625 5.35755,-1.25 0.54689,-0.6875 1.31004,-4.57139 1.69589,-8.63087 0.67572,-7.10921 0.87795,-7.56007 5.49448,-12.25 2.63612,-2.67802 5.31271,-4.86913 5.94799,-4.86913 0.63529,0 2.91813,-1.16675 5.073,-2.59277 3.05945,-2.02465 4.60338,-2.44222 7.04613,-1.9057 4.23084,0.92924 4.66078,2.75647 1.59452,6.77654 -3.17893,4.1678 -2.31821,5.60744 4.89853,8.19333 6.76579,2.4243 7.54772,3.35362 4.52171,5.37395 -4.17462,2.78721 -6.00399,5.03725 -5.39204,6.63197 0.32137,0.83747 1.15048,1.52268 1.84246,1.52268 0.69198,0 2.44384,0.93266 3.89301,2.07258 3.09303,2.43298 3.56018,7.24747 0.97987,10.09868 -1.54009,1.70178 -1.5397,1.95613 0.006,3.66364 0.9133,1.00919 6.42038,4.25374 12.23795,7.21009 10.18026,5.17338 13.41146,8.0973 13.41146,12.13602 0,0.70419 0.9787,3.64164 2.1749,6.52767 2.04011,4.92214 2.0711,5.36201 0.5,7.09806 -1.87338,2.07006 -2.19176,4.75579 -0.6749,5.69326 2.12574,1.31378 0.92357,5.06093 -2.50003,7.79263 -1.92498,1.53595 -3.49997,3.3787 -3.49997,4.09501 0,0.71631 -0.9,2.11687 -2,3.11236 -1.1,0.99549 -2,2.90675 -2,4.24726 0,1.3405 -0.9,3.58145 -2,4.97987 -2.63508,3.34996 -2.53906,3.94275 0.92913,5.73622 4.50505,2.32965 4.93244,5.31162 1.18196,8.24681 -2.39408,1.87365 -3.11109,3.21843 -3.11109,5.83498 0,4.85151 4.66627,14.18578 7.85579,15.71447 3.18193,1.52506 3.9982,4.50737 1.46812,5.36391 -9.96709,3.37431 -11.94247,5.92112 -8.82391,11.37648 0.78602,1.375 1.44508,3.6824 1.46456,5.12756 0.0195,1.44515 0.65621,3.14274 1.41493,3.77242 1.92655,1.5989 2.87038,7.09402 1.5017,8.74318 -0.61976,0.74626 -2.1413,1.35684 -3.38161,1.35684 -2.75657,0 -4.29557,1.72784 -5.09376,5.71878 -0.48664,2.4332 -0.14937,3.34773 1.71657,4.65469 1.27721,0.89459 3.22343,1.62653 4.32494,1.62653 1.1015,0 5.09623,1.21369 8.87718,2.6971 4.82783,1.89413 7.13511,3.3827 7.75001,5 0.63636,1.67377 1.66844,2.3029 3.77786,2.3029 1.59627,0 3.46251,0.675 4.1472,1.5 0.68469,0.825 2.75564,1.5 4.60212,1.5 2.90179,0 3.63007,-0.5348 5.36837,-3.94215 1.10612,-2.16819 1.73569,-4.65995 1.39904,-5.53725 -0.33665,-0.8773 0.17082,-2.4602 1.12771,-3.51755 1.09675,-1.2119 1.5267,-2.77153 1.16324,-4.21967 -0.84225,-3.3558 3.20924,-9.94534 7.36903,-11.98535 5.66488,-2.77812 16.47924,-1.68928 20.20261,2.03409 2.21069,2.21069 6.23339,1.22668 10.9631,-2.68173 4.13592,-3.41772 5.46043,-3.92413 11.80625,-4.51391 6.25666,-0.58149 7.46686,-0.41325 9.70797,1.34961 1.40815,1.10765 3.17754,2.01391 3.93196,2.01391 0.75443,0 4.5425,3.11471 8.41794,6.92158 8.43447,8.28524 13.25838,12.07842 15.36052,12.07842 0.85431,0 2.16463,1.4625 2.91182,3.25 0.74718,1.7875 2.10322,3.8676 3.01342,4.62244 0.91019,0.75485 1.66233,1.87985 1.67142,2.5 0.009,0.62016 2.03408,3.07601 4.5,5.45744 2.90808,2.80846 4.48348,5.18896 4.48348,6.77475 0,1.68773 0.77422,2.73923 2.5,3.39537 2.0198,0.76793 2.5,1.63356 2.5,4.50663 0,2.28217 0.55263,3.7682 1.5426,4.14809 2.7256,1.04591 5.4574,7.89518 5.4574,13.683 0,3.59551 0.50445,5.83605 1.5,6.66228 1.80783,1.50036 1.94325,4.15675 0.29589,5.80411 -0.66226,0.66226 -1.09797,2.78014 -0.96824,4.7064 0.12972,1.92626 -0.27486,4.4566 -0.89908,5.62296 -1.00373,1.87548 -1.7258,2.05069 -6.24517,1.51544 -4.77746,-0.56582 -5.54198,-1.07261 -11.74059,-7.78263 -4.43014,-4.79564 -7.05198,-6.91684 -7.90087,-6.3922 -1.75337,1.08364 -0.70796,8.13249 1.58128,10.66207 1.9287,2.1312 1.28433,4.25802 -1.89832,6.26558 -2.70585,1.70681 -10.07378,-0.92354 -16.69767,-5.96104 -3.91903,-2.98045 -6.80949,-4.46865 -8.27501,-4.26053 -2.11367,0.30016 -2.32514,1.0534 -3.43759,12.24428 -1.431,14.39529 -1.65197,15.30964 -4.57165,18.91646 l -2.29968,2.8409 -4.97165,-6.82402 c -6.95467,-9.54588 -11.42777,-14.35885 -13.33801,-14.35146 -0.8985,0.003 -2.40021,1.35348 -3.33713,3 -1.36657,2.40159 -2.37426,2.99368 -5.09501,2.99368 -2.12153,0 -4.06929,-0.74892 -5.2015,-2 -1.92343,-2.12536 -4.01837,-2.58831 -4.94296,-1.0923 -0.30854,0.49924 1.2399,3.186 3.44099,5.97059 2.20108,2.78458 4.00197,5.34415 4.00197,5.68792 0,0.34378 -0.87864,1.85899 -1.95254,3.36713 -1.95006,2.73861 -1.94964,2.74641 0.32746,6.15437 1.254,1.87676 2.5487,4.14813 2.8771,5.04749 0.77848,2.1319 -1.86535,5.8648 -4.15374,5.8648 -0.98357,0 -2.5924,0.88852 -3.57518,1.97448 -1.53212,1.69296 -1.61247,2.39554 -0.56362,4.9277 1.55976,3.7656 3.87711,5.82493 7.04052,6.25664 l 2.5,0.34118 0.1747,13.3747 c 0.0961,7.35608 0.54821,13.74821 1.00472,14.20472 0.45651,0.45651 5.55289,3.2572 11.3253,6.22377 11.65639,5.99048 13.379,7.95015 12.4794,14.19681 -1.20043,8.33548 -1.41724,20.1196 -0.42592,23.14931 0.56674,1.73213 0.7524,4.25714 0.41257,5.61114 -0.66961,2.66791 -10.28686,10.25079 -16.97077,13.38087 l -4,1.8732 -0.27295,32.99274 c -0.27771,33.56895 0.45737,44.38155 3.22513,47.4399 3.28101,3.62547 1.15928,6.9588 -4.54,7.13257 -1.8767,0.0572 -21.86218,0.0224 -44.41218,-0.0773 -22.55,-0.0997 -42.13855,0.10788 -43.53011,0.46133 -1.39157,0.35346 -2.83339,0.33937 -3.20407,-0.0313 z m -61.26582,-96.12134 c 2.2,-0.29028 4.81397,-1.24774 5.80883,-2.12769 1.02952,-0.91062 3.18368,-1.4951 5,-1.35664 1.75514,0.1338 4.09117,-0.19626 5.19117,-0.73346 4.76017,-2.32469 13.10709,-3.54971 30.93969,-4.54081 8.32007,-0.46241 12.78698,-1.16409 14.73454,-2.31454 2.41185,-1.42472 3.28638,-1.47323 6.38158,-0.35399 3.16174,1.1433 3.81783,1.08782 5.53732,-0.46831 1.78011,-1.61097 2.23279,-1.63412 5.17874,-0.26484 2.43276,1.13075 4.95284,1.33247 10.22813,0.81873 4.5507,-0.44317 8.80112,-0.23571 12.14753,0.59294 2.83115,0.70105 6.88115,1.049 9,0.77323 2.11886,-0.27577 7.90247,0.21374 12.85247,1.08779 22.3543,3.94725 21.44159,3.68567 23.64184,6.77564 1.78881,2.51214 2.50558,2.81943 5.21597,2.23614 5.08901,-1.09518 8.64219,-3.32598 8.64219,-5.42584 0,-2.39717 -1.83265,-3.34394 -9.5,-4.90784 -6.22354,-1.26941 -12.09229,-3.01173 -21.5,-6.38294 -5.0983,-1.82696 -8.14109,-1.96773 -41.66129,-1.92747 -21.3082,0.0256 -36.91652,0.44136 -38,1.01223 -1.01129,0.53285 -6.56371,1.2948 -12.33871,1.69323 -5.775,0.39844 -10.96438,1.09834 -11.53196,1.55534 -0.56758,0.45701 -4.81854,1.30572 -9.44659,1.88603 -4.62805,0.58031 -8.86617,1.50664 -9.41804,2.05851 -0.55188,0.55188 -2.23685,1.00341 -3.74439,1.00341 -1.50754,0 -3.0191,0.45 -3.35902,1 -0.33992,0.55 -1.66138,1 -2.93657,1 -1.2752,0 -2.87874,0.675 -3.56343,1.5 -0.68469,0.825 -1.87891,1.5 -2.65383,1.5 -2.0297,0 -2.79167,2.75827 -1.26886,4.59315 0.88621,1.06782 2.11758,1.35693 3.86187,0.90673 1.40845,-0.36353 4.36082,-0.89846 6.56082,-1.18873 z m 0.35361,-13.23174 c 4.77927,-2.00138 9.04708,-3.07941 12.19099,-3.07941 2.66055,0 5.08714,-0.40415 5.39243,-0.89811 0.30528,-0.49396 3.81934,-1.20466 7.80902,-1.57933 3.98967,-0.37467 11.75395,-1.81948 17.25395,-3.2107 9.1015,-2.3022 12.23148,-2.5602 34.83563,-2.87138 14.13404,-0.19457 26.24935,-0.80847 28.1165,-1.42468 2.74483,-0.90588 4.56891,-0.66185 11.16437,1.49357 4.53596,1.48236 8.88884,2.32521 10.25109,1.98492 1.44502,-0.36096 3.02047,-5.8e-4 4.04305,0.92484 0.92149,0.83394 5.03108,2.03872 9.1324,2.67728 4.10133,0.63857 10.24552,2.28544 13.65375,3.65972 7.34139,2.96021 9.87454,2.52178 8.75608,-1.51545 -0.4176,-1.50737 -1.02784,-7.69068 -1.35607,-13.74068 l -0.5968,-11 -6.84902,-3.29687 c -4.69342,-2.25924 -8.94229,-3.48259 -13.5,-3.88695 -3.65804,-0.32454 -7.16653,-0.99458 -7.79665,-1.48898 -0.68302,-0.53591 -3.86964,-0.46376 -7.89112,0.17868 -6.38608,1.02018 -6.87339,0.9574 -9.14668,-1.17824 -2.05049,-1.92634 -2.6938,-2.07313 -4.40424,-1.00494 -1.13043,0.70597 -3.39907,1.00946 -5.20765,0.69668 -1.76255,-0.30483 -14.00464,-0.0775 -27.20464,0.50512 -35.47981,1.56606 -35.42675,1.56245 -43,2.92607 -3.85,0.69322 -8.35,1.42206 -10,1.61965 -13.99394,1.67576 -24.12949,4.24243 -31.61428,8.00583 -4.35498,2.18972 -4.65164,2.60173 -5.27912,7.3319 -0.36566,2.7565 -0.37337,6.17313 -0.0171,7.59252 0.35624,1.41939 0.0867,4.5844 -0.59895,7.03335 -1.01243,3.61606 -1.00087,4.7488 0.0616,6.02893 1.48225,1.78601 1.73168,1.73352 11.80153,-2.48334 z m 22.34705,-39.45539 c 0.4169,0.25766 1.77981,-0.11329 3.02867,-0.82434 2.30743,-1.31373 8.10567,-1.77003 47.27067,-3.72002 14.68386,-0.73109 25.65807,-0.77603 33,-0.13512 20.22286,1.76533 32.26164,2.25015 32.83507,1.32232 0.30937,-0.50056 0.69803,-5.07818 0.86371,-10.1725 0.27797,-8.54754 0.13013,-9.40126 -1.91562,-11.06181 -3.13327,-2.5433 -19.8978,-4.41678 -33.96708,-3.79591 -6.248,0.27573 -11.56345,0.17212 -11.81212,-0.23023 -0.24866,-0.40234 -10.02019,-0.68088 -21.7145,-0.61897 -18.47831,0.0978 -21.30199,0.31836 -21.56491,1.68428 -0.17267,0.89707 0.78732,2.06829 2.23646,2.72856 4.29998,1.9592 3.2103,4.56766 -2.71101,6.48955 -5.7543,1.86769 -7.66589,2.09729 -15.53333,1.86569 -4.60328,-0.1355 -5.73385,-0.60603 -8.78334,-3.65552 -1.925,-1.925 -3.87779,-3.5 -4.33955,-3.5 -1.58521,0 -9.82983,3.97704 -10.85939,5.23836 -1.66099,2.03489 -2.00224,18.66606 -0.40332,19.65588 0.73477,0.45486 4.08185,0.24997 7.47133,-0.45735 3.37714,-0.70474 6.48136,-1.07053 6.89826,-0.81287 z m -28.86157,-255.95232 1.9749,-4.8283 -4.12208,-4.12208 c -3.84054,-3.84054 -4.56844,-4.15051 -10.657,-4.5382 -7.4903,-0.47695 -7.78512,-0.0236 -4.89905,7.53345 1.75065,4.58402 3.55686,5.32399 6.49815,2.66215 0.98533,-0.89171 2.48326,-1.35583 3.32874,-1.03139 2.04065,0.78307 1.9651,4.31385 -0.11724,5.47919 -2.82927,1.58334 -0.86513,4.35101 2.82971,3.98735 2.76927,-0.27256 3.44889,-0.94933 5.16387,-5.14217 z m 37.66091,-11.45221 c 6.16771,-4.17105 7.21422,-6.97076 4.53921,-12.14368 -2.45841,-4.75403 -5.45025,-6.14728 -13.68676,-6.3737 -6.18004,-0.16988 -7.95042,0.16968 -11.10245,2.12945 -3.38033,2.10172 -3.75,2.75094 -3.75,6.58589 0,3.36956 0.75571,5.22432 3.63377,8.91844 3.56648,4.57772 3.7378,4.66354 9.25,4.6336 4.80217,-0.0261 6.41344,-0.56963 11.11623,-3.75 z m -15.34501,-2.04823 c -3.44525,-3.80695 -1.25696,-7.04113 3.89007,-5.74931 3.33326,0.8366 4.13232,3.17207 1.92123,5.6153 -2.21182,2.44403 -3.68992,2.47811 -5.8113,0.13401 z"
       style="fill:#000000;fill-opacity:0" />
    <path
       inkscape:connector-curvature="0"
       id="path3054"
       d="m 324.39808,791.53088 c -0.37067,-0.37067 -13.81215,-0.65798 -29.86995,-0.63846 -30.06667,0.0366 -32.89587,-0.30553 -32.89587,-3.97742 0,-0.93626 0.98346,-3.36913 2.18547,-5.40638 2.10672,-3.57063 2.19585,-4.86089 2.47368,-35.80716 0.15852,-17.65669 0.53595,-33.1248 0.83873,-34.37359 1.10791,-4.56936 -0.7139,-5.7672 -10.99488,-7.22905 -11.29451,-1.60598 -13.36559,-2.64635 -11.43192,-5.74265 0.92366,-1.479 1.00223,-2.48696 0.26711,-3.42658 -0.57281,-0.73216 -1.11056,-4.45123 -1.19499,-8.26459 -0.0928,-4.18998 -0.73778,-7.8251 -1.63012,-9.18699 -0.81214,-1.23948 -1.44684,-3.96946 -1.41045,-6.06661 0.0364,-2.09716 -0.23996,-5.22154 -0.61413,-6.94307 -1.0395,-4.78277 3.12658,-11.76666 7.26434,-12.17774 1.70402,-0.1693 3.63683,-0.9568 4.29513,-1.75 0.65831,-0.79321 1.80116,-1.4422 2.53968,-1.4422 0.73852,0 2.93342,-1.39662 4.87755,-3.10359 3.66689,-3.21957 4.68805,-7.34316 2.38803,-9.64318 -0.63072,-0.63072 -1.35999,-4.46925 -1.6206,-8.53007 l -0.47383,-7.38329 3.77117,-2.22505 c 2.07415,-1.22378 5.05153,-2.48112 6.61641,-2.7941 3.72989,-0.74597 9.49356,-7.21108 10.71058,-12.01405 0.53052,-2.09367 1.16287,-8.45261 1.40522,-14.13097 0.43122,-10.1033 0.38765,-10.35903 -2.03517,-11.94653 -1.694,-1.10995 -5.9891,-1.83974 -13.60142,-2.31106 -6.11907,-0.37887 -16.12236,-1.73176 -22.22952,-3.00644 l -11.10392,-2.31758 -4.30937,3.68866 c -3.8936,3.33277 -4.69865,3.62641 -8.344,3.0435 -2.21904,-0.35484 -6.53305,-1.61292 -9.5867,-2.79573 -4.61986,-1.78947 -5.55208,-2.55798 -5.55208,-4.57707 0,-1.6743 0.87235,-2.84461 2.81412,-3.77527 1.54776,-0.74183 3.08054,-2.04309 3.40619,-2.89169 0.71211,-1.85574 -1.4185,-10.95104 -3.25151,-13.8803 -0.85255,-1.36241 -1.45079,-6.86786 -1.71261,-15.76063 -0.38868,-13.20178 -0.49346,-13.76189 -3.07928,-16.46091 -1.4723,-1.53675 -2.67691,-3.20719 -2.67691,-3.7121 0,-0.50491 -1.88588,-2.54225 -4.19085,-4.52743 -4.10446,-3.53502 -4.16347,-3.6755 -2.86285,-6.81549 1.43887,-3.47371 3.7107,-5.12963 7.03762,-5.12963 1.16347,0 3.33055,-0.61418 4.81574,-1.36484 1.48519,-0.75067 7.31284,-1.67127 12.95034,-2.04579 l 10.25,-0.68094 0,2.42334 c 0,1.33284 0.63897,2.95364 1.41993,3.60178 1.55422,1.28988 2.28459,7.97708 3.08443,28.24071 0.27515,6.97084 0.78561,13.41781 1.13434,14.3266 1.12212,2.92418 5.18709,3.51975 23.37227,3.42431 16.09719,-0.0845 17.99654,-0.27598 19.52877,-1.96908 1.17468,-1.29801 1.49069,-2.69873 1.02628,-4.54908 -0.71006,-2.8291 1.07285,-9.2816 4.94795,-17.90701 1.23548,-2.75 2.82309,-6.575 3.52802,-8.5 0.70493,-1.925 2.10886,-4.429 3.11985,-5.56445 1.01099,-1.13545 1.83816,-2.73295 1.83816,-3.55 0,-0.81705 0.42926,-1.91481 0.95391,-2.43946 0.52465,-0.52465 1.171,-7.36127 1.43634,-15.19248 0.26533,-7.83121 0.83509,-14.80445 1.26613,-15.49609 0.75907,-1.21798 1.22007,-3.86719 3.43809,-19.75752 1.08596,-7.78005 0.49316,-20.81237 -1.0153,-22.32083 -1.14509,-1.14509 -4.33182,0.61196 -11.28056,6.21971 -3.13576,2.53062 -7.53582,5.84329 -9.77792,7.36149 -2.24209,1.51821 -5.51187,4.79671 -7.26617,7.28556 -1.93707,2.74814 -4.18413,4.72118 -5.72208,5.02431 -1.39284,0.27452 -3.91439,0.93352 -5.60344,1.46444 -4.82254,1.51589 -12.42614,1.13998 -20.929,-1.03468 -4.30096,-1.1 -10.91796,-2 -14.70445,-2 -3.78648,0 -9.75022,-0.71984 -13.25275,-1.59965 -8.1117,-2.03759 -12.59922,-6.93211 -13.33016,-14.53917 -0.45673,-4.7533 -0.39285,-4.88794 2.98993,-6.30135 1.90116,-0.79436 4.03842,-2.14528 4.74948,-3.00205 0.71106,-0.85678 2.47524,-1.57373 3.92039,-1.59322 1.44516,-0.0195 3.75256,-0.67854 5.12756,-1.46456 1.375,-0.78602 3.72893,-1.44508 5.23095,-1.46456 2.03077,-0.0264 2.88482,-0.64852 3.3311,-2.42666 0.39755,-1.58394 1.53031,-2.57725 3.35532,-2.94225 2.92487,-0.58498 10.01405,-6.03834 13.33047,-10.25448 1.09545,-1.39263 2.40674,-4.3792 2.914,-6.63682 0.86878,-3.86668 0.72366,-4.31271 -2.50217,-7.69 -1.88345,-1.97187 -4.23359,-5.33582 -5.22253,-7.47544 -0.99778,-2.15872 -3.27557,-4.76194 -5.11761,-5.84877 -4.15876,-2.45373 -4.28018,-5.21289 -0.31953,-7.26102 3.46222,-1.79038 3.4783,-1.84038 1.54246,-4.79486 -1.80473,-2.75436 -0.93544,-4.21666 2.95754,-4.97513 8.90114,-1.7342 11.44577,-5.52227 5.3739,-7.99986 -2.17204,-0.88628 -3.46911,-2.33139 -4.25,-4.73505 -0.66703,-2.05317 -2.42938,-4.27971 -4.33538,-5.47728 -3.71868,-2.3365 -3.93324,-3.14547 -1.53852,-5.80074 1.68831,-1.87201 1.60018,-2.06963 -2.5,-5.60601 -2.3375,-2.01608 -4.25,-4.19544 -4.25,-4.84303 0,-1.72166 6.28818,-2.61829 13.87432,-1.97834 8.24711,0.69571 16.12568,3.88109 16.12568,6.51978 0,1.0343 0.9,2.69503 2,3.69052 1.1,0.99549 2,2.38867 2,3.09597 0,3.03687 2.23154,2.04807 8.16956,-3.61992 3.48174,-3.3234 7.45544,-6.25976 8.83044,-6.52523 1.375,-0.26548 4.41896,-0.92551 6.76435,-1.46675 2.34539,-0.54124 6.22779,-0.98407 8.62756,-0.98407 2.39976,0 4.81066,-0.5625 5.35755,-1.25 0.54689,-0.6875 1.31004,-4.57139 1.69589,-8.63087 0.67572,-7.10921 0.87795,-7.56007 5.49448,-12.25 2.63612,-2.67802 5.31271,-4.86913 5.94799,-4.86913 0.63529,0 2.91813,-1.16675 5.073,-2.59277 3.05945,-2.02465 4.60338,-2.44222 7.04613,-1.9057 4.23084,0.92924 4.66078,2.75647 1.59452,6.77654 -3.17893,4.1678 -2.31821,5.60744 4.89853,8.19333 6.76579,2.4243 7.54772,3.35362 4.52171,5.37395 -4.17462,2.78721 -6.00399,5.03725 -5.39204,6.63197 0.32137,0.83747 1.15048,1.52268 1.84246,1.52268 0.69198,0 2.44384,0.93266 3.89301,2.07258 3.09303,2.43298 3.56018,7.24747 0.97987,10.09868 -1.54009,1.70178 -1.5397,1.95613 0.006,3.66364 0.9133,1.00919 6.42038,4.25374 12.23795,7.21009 10.18026,5.17338 13.41146,8.0973 13.41146,12.13602 0,0.70419 0.9787,3.64164 2.1749,6.52767 2.04011,4.92214 2.0711,5.36201 0.5,7.09806 -1.87338,2.07006 -2.19176,4.75579 -0.6749,5.69326 2.12574,1.31378 0.92357,5.06093 -2.50003,7.79263 -1.92498,1.53595 -3.49997,3.3787 -3.49997,4.09501 0,0.71631 -0.9,2.11687 -2,3.11236 -1.1,0.99549 -2,2.90675 -2,4.24726 0,1.3405 -0.9,3.58145 -2,4.97987 -2.63508,3.34996 -2.53906,3.94275 0.92913,5.73622 4.50505,2.32965 4.93244,5.31162 1.18196,8.24681 -2.39408,1.87365 -3.11109,3.21843 -3.11109,5.83498 0,4.85151 4.66627,14.18578 7.85579,15.71447 3.18193,1.52506 3.9982,4.50737 1.46812,5.36391 -9.96709,3.37431 -11.94247,5.92112 -8.82391,11.37648 0.78602,1.375 1.44508,3.6824 1.46456,5.12756 0.0195,1.44515 0.65621,3.14274 1.41493,3.77242 1.92655,1.5989 2.87038,7.09402 1.5017,8.74318 -0.61976,0.74626 -2.1413,1.35684 -3.38161,1.35684 -2.75657,0 -4.29557,1.72784 -5.09376,5.71878 -0.48664,2.4332 -0.14937,3.34773 1.71657,4.65469 1.27721,0.89459 3.22343,1.62653 4.32494,1.62653 1.1015,0 5.09623,1.21369 8.87718,2.6971 4.82783,1.89413 7.13511,3.3827 7.75001,5 0.63636,1.67377 1.66844,2.3029 3.77786,2.3029 1.59627,0 3.46251,0.675 4.1472,1.5 0.68469,0.825 2.75564,1.5 4.60212,1.5 2.90179,0 3.63007,-0.5348 5.36837,-3.94215 1.10612,-2.16819 1.73569,-4.65995 1.39904,-5.53725 -0.33665,-0.8773 0.17082,-2.4602 1.12771,-3.51755 1.09675,-1.2119 1.5267,-2.77153 1.16324,-4.21967 -0.84225,-3.3558 3.20924,-9.94534 7.36903,-11.98535 5.66488,-2.77812 16.47924,-1.68928 20.20261,2.03409 2.21069,2.21069 6.23339,1.22668 10.9631,-2.68173 4.13592,-3.41772 5.46043,-3.92413 11.80625,-4.51391 6.25666,-0.58149 7.46686,-0.41325 9.70797,1.34961 1.40815,1.10765 3.17754,2.01391 3.93196,2.01391 0.75443,0 4.5425,3.11471 8.41794,6.92158 8.43447,8.28524 13.25838,12.07842 15.36052,12.07842 0.85431,0 2.16463,1.4625 2.91182,3.25 0.74718,1.7875 2.10322,3.8676 3.01342,4.62244 0.91019,0.75485 1.66233,1.87985 1.67142,2.5 0.009,0.62016 2.03408,3.07601 4.5,5.45744 2.90808,2.80846 4.48348,5.18896 4.48348,6.77475 0,1.68773 0.77422,2.73923 2.5,3.39537 2.0198,0.76793 2.5,1.63356 2.5,4.50663 0,2.28217 0.55263,3.7682 1.5426,4.14809 2.7256,1.04591 5.4574,7.89518 5.4574,13.683 0,3.59551 0.50445,5.83605 1.5,6.66228 1.80783,1.50036 1.94325,4.15675 0.29589,5.80411 -0.66226,0.66226 -1.09797,2.78014 -0.96824,4.7064 0.12972,1.92626 -0.27486,4.4566 -0.89908,5.62296 -1.00373,1.87548 -1.7258,2.05069 -6.24517,1.51544 -4.77746,-0.56582 -5.54198,-1.07261 -11.74059,-7.78263 -4.43014,-4.79564 -7.05198,-6.91684 -7.90087,-6.3922 -1.75337,1.08364 -0.70796,8.13249 1.58128,10.66207 1.9287,2.1312 1.28433,4.25802 -1.89832,6.26558 -2.70585,1.70681 -10.07378,-0.92354 -16.69767,-5.96104 -3.91903,-2.98045 -6.80949,-4.46865 -8.27501,-4.26053 -2.11367,0.30016 -2.32514,1.0534 -3.43759,12.24428 -1.431,14.39529 -1.65197,15.30964 -4.57165,18.91646 l -2.29968,2.8409 -4.97165,-6.82402 c -6.95467,-9.54588 -11.42777,-14.35885 -13.33801,-14.35146 -0.8985,0.003 -2.40021,1.35348 -3.33713,3 -1.36657,2.40159 -2.37426,2.99368 -5.09501,2.99368 -2.12153,0 -4.06929,-0.74892 -5.2015,-2 -1.92343,-2.12536 -4.01837,-2.58831 -4.94296,-1.0923 -0.30854,0.49924 1.2399,3.186 3.44099,5.97059 2.20108,2.78458 4.00197,5.34415 4.00197,5.68792 0,0.34378 -0.87864,1.85899 -1.95254,3.36713 -1.95006,2.73861 -1.94964,2.74641 0.32746,6.15437 1.254,1.87676 2.5487,4.14813 2.8771,5.04749 0.77848,2.1319 -1.86535,5.8648 -4.15374,5.8648 -0.98357,0 -2.5924,0.88852 -3.57518,1.97448 -1.53212,1.69296 -1.61247,2.39554 -0.56362,4.9277 1.55976,3.7656 3.87711,5.82493 7.04052,6.25664 l 2.5,0.34118 0.1747,13.3747 c 0.0961,7.35608 0.54821,13.74821 1.00472,14.20472 0.45651,0.45651 5.55289,3.2572 11.3253,6.22377 11.65639,5.99048 13.379,7.95015 12.4794,14.19681 -1.20043,8.33548 -1.41724,20.1196 -0.42592,23.14931 0.56674,1.73213 0.7524,4.25714 0.41257,5.61114 -0.66961,2.66791 -10.28686,10.25079 -16.97077,13.38087 l -4,1.8732 -0.27295,32.99274 c -0.27771,33.56895 0.45737,44.38155 3.22513,47.4399 3.28101,3.62547 1.15928,6.9588 -4.54,7.13257 -1.8767,0.0572 -21.86218,0.0224 -44.41218,-0.0773 -22.55,-0.0997 -42.13855,0.10788 -43.53011,0.46133 -1.39157,0.35346 -2.83339,0.33937 -3.20407,-0.0313 z m -43.53682,-6.99482 c 0.30928,-0.30928 26.6038,-0.52092 58.43227,-0.47031 41.36367,0.0658 58.8141,-0.23712 61.1801,-1.06191 2.45064,-0.85429 3.60208,-0.862 4.43439,-0.0297 3.6973,3.6973 4.69873,-1.2518 3.63509,-17.96467 -1.38432,-21.75142 -1.80881,-50.04929 -0.79094,-52.72648 0.58408,-1.53624 0.47461,-3.80593 -0.30984,-6.4242 -1.06773,-3.56378 -1.87753,-4.34128 -6.76154,-6.4919 -3.05169,-1.34378 -6.3586,-3.1691 -7.3487,-4.05626 -1.66023,-1.48764 -2.07046,-1.46746 -5.27732,0.25955 -3.36913,1.8144 -3.5928,1.81621 -7.19983,0.0584 -2.45663,-1.19716 -6.78351,-1.95386 -12.72268,-2.22499 -4.95,-0.22598 -10.0125,-0.91314 -11.25,-1.52704 -1.65773,-0.82236 -2.84227,-0.82096 -4.5,0.005 -2.78947,1.39037 -12.16635,1.34701 -16.43417,-0.076 -2.30309,-0.76792 -3.5607,-0.7492 -4.54496,0.0677 -0.87407,0.72541 -4.90166,1.01046 -11.26044,0.79694 -5.4448,-0.18283 -11.04956,0.068 -12.45503,0.55731 -1.40547,0.48936 -5.4804,1.31587 -9.0554,1.83671 -15.16037,2.20868 -17.77758,3.10538 -20.49077,7.02052 l -2.5368,3.66061 -0.0941,38.92635 c -0.0518,21.4095 -0.0456,39.26386 0.0138,39.67636 0.12502,0.86892 4.50175,1.02283 5.33691,0.18767 z m -17.729,-89.12652 c 2.2,-0.29028 4.81397,-1.24774 5.80883,-2.12769 1.02952,-0.91062 3.18368,-1.4951 5,-1.35664 1.75514,0.1338 4.09117,-0.19626 5.19117,-0.73346 4.76017,-2.32469 13.10709,-3.54971 30.93969,-4.54081 8.32007,-0.46241 12.78698,-1.16409 14.73454,-2.31454 2.41185,-1.42472 3.28638,-1.47323 6.38158,-0.35399 3.16174,1.1433 3.81783,1.08782 5.53732,-0.46831 1.78011,-1.61097 2.23279,-1.63412 5.17874,-0.26484 2.43276,1.13075 4.95284,1.33247 10.22813,0.81873 4.5507,-0.44317 8.80112,-0.23571 12.14753,0.59294 2.83115,0.70105 6.88115,1.049 9,0.77323 2.11886,-0.27577 7.90247,0.21374 12.85247,1.08779 22.3543,3.94725 21.44159,3.68567 23.64184,6.77564 1.78881,2.51214 2.50558,2.81943 5.21597,2.23614 5.08901,-1.09518 8.64219,-3.32598 8.64219,-5.42584 0,-2.39717 -1.83265,-3.34394 -9.5,-4.90784 -6.22354,-1.26941 -12.09229,-3.01173 -21.5,-6.38294 -5.0983,-1.82696 -8.14109,-1.96773 -41.66129,-1.92747 -21.3082,0.0256 -36.91652,0.44136 -38,1.01223 -1.01129,0.53285 -6.56371,1.2948 -12.33871,1.69323 -5.775,0.39844 -10.96438,1.09834 -11.53196,1.55534 -0.56758,0.45701 -4.81854,1.30572 -9.44659,1.88603 -4.62805,0.58031 -8.86617,1.50664 -9.41804,2.05851 -0.55188,0.55188 -2.23685,1.00341 -3.74439,1.00341 -1.50754,0 -3.0191,0.45 -3.35902,1 -0.33992,0.55 -1.66138,1 -2.93657,1 -1.2752,0 -2.87874,0.675 -3.56343,1.5 -0.68469,0.825 -1.87891,1.5 -2.65383,1.5 -2.0297,0 -2.79167,2.75827 -1.26886,4.59315 0.88621,1.06782 2.11758,1.35693 3.86187,0.90673 1.40845,-0.36353 4.36082,-0.89846 6.56082,-1.18873 z m 0.35361,-13.23174 c 4.77927,-2.00138 9.04708,-3.07941 12.19099,-3.07941 2.66055,0 5.08714,-0.40415 5.39243,-0.89811 0.30528,-0.49396 3.81934,-1.20466 7.80902,-1.57933 3.98967,-0.37467 11.75395,-1.81948 17.25395,-3.2107 9.1015,-2.3022 12.23148,-2.5602 34.83563,-2.87138 14.13404,-0.19457 26.24935,-0.80847 28.1165,-1.42468 2.74483,-0.90588 4.56891,-0.66185 11.16437,1.49357 4.53596,1.48236 8.88884,2.32521 10.25109,1.98492 1.44502,-0.36096 3.02047,-5.8e-4 4.04305,0.92484 0.92149,0.83394 5.03108,2.03872 9.1324,2.67728 4.10133,0.63857 10.24552,2.28544 13.65375,3.65972 7.34139,2.96021 9.87454,2.52178 8.75608,-1.51545 -0.4176,-1.50737 -1.02784,-7.69068 -1.35607,-13.74068 l -0.5968,-11 -6.84902,-3.29687 c -4.69342,-2.25924 -8.94229,-3.48259 -13.5,-3.88695 -3.65804,-0.32454 -7.16653,-0.99458 -7.79665,-1.48898 -0.68302,-0.53591 -3.86964,-0.46376 -7.89112,0.17868 -6.38608,1.02018 -6.87339,0.9574 -9.14668,-1.17824 -2.05049,-1.92634 -2.6938,-2.07313 -4.40424,-1.00494 -1.13043,0.70597 -3.39907,1.00946 -5.20765,0.69668 -1.76255,-0.30483 -14.00464,-0.0775 -27.20464,0.50512 -35.47981,1.56606 -35.42675,1.56245 -43,2.92607 -3.85,0.69322 -8.35,1.42206 -10,1.61965 -13.99394,1.67576 -24.12949,4.24243 -31.61428,8.00583 -4.35498,2.18972 -4.65164,2.60173 -5.27912,7.3319 -0.36566,2.7565 -0.37337,6.17313 -0.0171,7.59252 0.35624,1.41939 0.0867,4.5844 -0.59895,7.03335 -1.01243,3.61606 -1.00087,4.7488 0.0616,6.02893 1.48225,1.78601 1.73168,1.73352 11.80153,-2.48334 z m 22.34705,-39.45539 c 0.4169,0.25766 1.77981,-0.11329 3.02867,-0.82434 2.30743,-1.31373 8.10567,-1.77003 47.27067,-3.72002 14.68386,-0.73109 25.65807,-0.77603 33,-0.13512 20.22286,1.76533 32.26164,2.25015 32.83507,1.32232 0.30937,-0.50056 0.69803,-5.07818 0.86371,-10.1725 0.27797,-8.54754 0.13013,-9.40126 -1.91562,-11.06181 -3.13327,-2.5433 -19.8978,-4.41678 -33.96708,-3.79591 -6.248,0.27573 -11.56345,0.17212 -11.81212,-0.23023 -0.24866,-0.40234 -10.02019,-0.68088 -21.7145,-0.61897 -18.47831,0.0978 -21.30199,0.31836 -21.56491,1.68428 -0.17267,0.89707 0.78732,2.06829 2.23646,2.72856 4.29998,1.9592 3.2103,4.56766 -2.71101,6.48955 -5.7543,1.86769 -7.66589,2.09729 -15.53333,1.86569 -4.60328,-0.1355 -5.73385,-0.60603 -8.78334,-3.65552 -1.925,-1.925 -3.87779,-3.5 -4.33955,-3.5 -1.58521,0 -9.82983,3.97704 -10.85939,5.23836 -1.66099,2.03489 -2.00224,18.66606 -0.40332,19.65588 0.73477,0.45486 4.08185,0.24997 7.47133,-0.45735 3.37714,-0.70474 6.48136,-1.07053 6.89826,-0.81287 z m -28.86157,-255.95232 1.9749,-4.8283 -4.12208,-4.12208 c -3.84054,-3.84054 -4.56844,-4.15051 -10.657,-4.5382 -7.4903,-0.47695 -7.78512,-0.0236 -4.89905,7.53345 1.75065,4.58402 3.55686,5.32399 6.49815,2.66215 0.98533,-0.89171 2.48326,-1.35583 3.32874,-1.03139 2.04065,0.78307 1.9651,4.31385 -0.11724,5.47919 -2.82927,1.58334 -0.86513,4.35101 2.82971,3.98735 2.76927,-0.27256 3.44889,-0.94933 5.16387,-5.14217 z m 37.66091,-11.45221 c 6.16771,-4.17105 7.21422,-6.97076 4.53921,-12.14368 -2.45841,-4.75403 -5.45025,-6.14728 -13.68676,-6.3737 -6.18004,-0.16988 -7.95042,0.16968 -11.10245,2.12945 -3.38033,2.10172 -3.75,2.75094 -3.75,6.58589 0,3.36956 0.75571,5.22432 3.63377,8.91844 3.56648,4.57772 3.7378,4.66354 9.25,4.6336 4.80217,-0.0261 6.41344,-0.56963 11.11623,-3.75 z m -15.34501,-2.04823 c -3.44525,-3.80695 -1.25696,-7.04113 3.89007,-5.74931 3.33326,0.8366 4.13232,3.17207 1.92123,5.6153 -2.21182,2.44403 -3.68992,2.47811 -5.8113,0.13401 z"
       style="fill:#e30403" />
    <path
       inkscape:connector-curvature="0"
       id="path3052"
       d="m 324.35048,791.48327 c -0.39686,-0.39686 -13.82636,-0.67668 -29.84334,-0.62184 -30.06418,0.10294 -32.87488,-0.23446 -32.87488,-3.94643 0,-0.93626 0.98346,-3.36913 2.18547,-5.40638 2.10672,-3.57063 2.19585,-4.86089 2.47368,-35.80716 0.15852,-17.65669 0.53595,-33.1248 0.83873,-34.37359 1.10791,-4.56936 -0.7139,-5.7672 -10.99488,-7.22905 -11.29451,-1.60598 -13.36559,-2.64635 -11.43192,-5.74265 0.92366,-1.479 1.00223,-2.48696 0.26711,-3.42658 -0.57281,-0.73216 -1.11056,-4.45123 -1.19499,-8.26459 -0.0928,-4.18998 -0.73778,-7.8251 -1.63012,-9.18699 -0.81214,-1.23948 -1.44684,-3.96946 -1.41045,-6.06661 0.0364,-2.09716 -0.23996,-5.22154 -0.61413,-6.94307 -1.0395,-4.78277 3.12658,-11.76666 7.26434,-12.17774 1.70402,-0.1693 3.63683,-0.9568 4.29513,-1.75 0.65831,-0.79321 1.80116,-1.4422 2.53968,-1.4422 0.73852,0 2.93342,-1.39662 4.87755,-3.10359 3.66689,-3.21957 4.68805,-7.34316 2.38803,-9.64318 -0.63072,-0.63072 -1.35999,-4.46925 -1.6206,-8.53007 l -0.47383,-7.38329 3.77117,-2.22505 c 2.07415,-1.22378 5.05153,-2.48112 6.61641,-2.7941 3.72989,-0.74597 9.49356,-7.21108 10.71058,-12.01405 0.53052,-2.09367 1.16287,-8.45261 1.40522,-14.13097 0.43122,-10.1033 0.38765,-10.35903 -2.03517,-11.94653 -1.694,-1.10995 -5.9891,-1.83974 -13.60142,-2.31106 -6.11907,-0.37887 -16.12236,-1.73176 -22.22952,-3.00644 l -11.10392,-2.31758 -4.30937,3.68866 c -3.8936,3.33277 -4.69865,3.62641 -8.344,3.0435 -2.21904,-0.35484 -6.53305,-1.61292 -9.5867,-2.79573 -4.61986,-1.78947 -5.55208,-2.55798 -5.55208,-4.57707 0,-1.6743 0.87235,-2.84461 2.81412,-3.77527 1.54776,-0.74183 3.08054,-2.04309 3.40619,-2.89169 0.71211,-1.85574 -1.4185,-10.95104 -3.25151,-13.8803 -0.85255,-1.36241 -1.45079,-6.86786 -1.71261,-15.76063 -0.38868,-13.20178 -0.49346,-13.76189 -3.07928,-16.46091 -1.4723,-1.53675 -2.67691,-3.20719 -2.67691,-3.7121 0,-0.50491 -1.88588,-2.54225 -4.19085,-4.52743 -4.10446,-3.53502 -4.16347,-3.6755 -2.86285,-6.81549 1.43887,-3.47371 3.7107,-5.12963 7.03762,-5.12963 1.16347,0 3.33055,-0.61418 4.81574,-1.36484 1.48519,-0.75067 7.31284,-1.67127 12.95034,-2.04579 l 10.25,-0.68094 0,2.42334 c 0,1.33284 0.63897,2.95364 1.41993,3.60178 1.55422,1.28988 2.28459,7.97708 3.08443,28.24071 0.27515,6.97084 0.78561,13.41781 1.13434,14.3266 1.12212,2.92418 5.18709,3.51975 23.37227,3.42431 16.09719,-0.0845 17.99654,-0.27598 19.52877,-1.96908 1.17468,-1.29801 1.49069,-2.69873 1.02628,-4.54908 -0.71006,-2.8291 1.07285,-9.2816 4.94795,-17.90701 1.23548,-2.75 2.82309,-6.575 3.52802,-8.5 0.70493,-1.925 2.10886,-4.429 3.11985,-5.56445 1.01099,-1.13545 1.83816,-2.73295 1.83816,-3.55 0,-0.81705 0.42926,-1.91481 0.95391,-2.43946 0.52465,-0.52465 1.171,-7.36127 1.43634,-15.19248 0.26533,-7.83121 0.83509,-14.80445 1.26613,-15.49609 0.75907,-1.21798 1.22007,-3.86719 3.43809,-19.75752 1.08596,-7.78005 0.49316,-20.81237 -1.0153,-22.32083 -1.14509,-1.14509 -4.33182,0.61196 -11.28056,6.21971 -3.13576,2.53062 -7.53582,5.84329 -9.77792,7.36149 -2.24209,1.51821 -5.51187,4.79671 -7.26617,7.28556 -1.93707,2.74814 -4.18413,4.72118 -5.72208,5.02431 -1.39284,0.27452 -3.91439,0.93352 -5.60344,1.46444 -4.82254,1.51589 -12.42614,1.13998 -20.929,-1.03468 -4.30096,-1.1 -10.91796,-2 -14.70445,-2 -3.78648,0 -9.75022,-0.71984 -13.25275,-1.59965 -5.3667,-1.34807 -6.88818,-2.24665 -9.67433,-5.71365 -2.73455,-3.40278 -3.31149,-4.97802 -3.33728,-9.11189 -0.0291,-4.6689 0.16629,-5.06569 2.96881,-6.02775 1.65,-0.56642 3.58802,-1.82123 4.3067,-2.78846 0.71869,-0.96723 2.51869,-1.77455 4,-1.79404 1.48132,-0.0195 3.8183,-0.67854 5.1933,-1.46456 1.375,-0.78602 3.72893,-1.44508 5.23095,-1.46456 2.03077,-0.0264 2.88482,-0.64852 3.3311,-2.42666 0.39755,-1.58394 1.53031,-2.57725 3.35532,-2.94225 2.92487,-0.58498 10.01405,-6.03834 13.33047,-10.25448 1.09545,-1.39263 2.40674,-4.3792 2.914,-6.63682 0.86878,-3.86668 0.72366,-4.31271 -2.50217,-7.69 -1.88345,-1.97187 -4.23359,-5.33582 -5.22253,-7.47544 -0.99778,-2.15872 -3.27557,-4.76194 -5.11761,-5.84877 -4.15876,-2.45373 -4.28018,-5.21289 -0.31953,-7.26102 3.46222,-1.79038 3.4783,-1.84038 1.54246,-4.79486 -1.80473,-2.75436 -0.93544,-4.21666 2.95754,-4.97513 8.90114,-1.7342 11.44577,-5.52227 5.3739,-7.99986 -2.17204,-0.88628 -3.46911,-2.33139 -4.25,-4.73505 -0.66703,-2.05317 -2.42938,-4.27971 -4.33538,-5.47728 -3.71868,-2.3365 -3.93324,-3.14547 -1.53852,-5.80074 1.68831,-1.87201 1.60018,-2.06963 -2.5,-5.60601 -2.3375,-2.01608 -4.25,-4.19544 -4.25,-4.84303 0,-1.72166 6.28818,-2.61829 13.87432,-1.97834 8.24711,0.69571 16.12568,3.88109 16.12568,6.51978 0,1.0343 0.9,2.69503 2,3.69052 1.1,0.99549 2,2.38867 2,3.09597 0,3.03687 2.23154,2.04807 8.16956,-3.61992 3.48174,-3.3234 7.45544,-6.25976 8.83044,-6.52523 1.375,-0.26548 4.41896,-0.92551 6.76435,-1.46675 2.34539,-0.54124 6.22779,-0.98407 8.62756,-0.98407 2.39976,0 4.81066,-0.5625 5.35755,-1.25 0.54689,-0.6875 1.31004,-4.57139 1.69589,-8.63087 0.67572,-7.10921 0.87795,-7.56007 5.49448,-12.25 2.63612,-2.67802 5.31271,-4.86913 5.94799,-4.86913 0.63529,0 2.91813,-1.16675 5.073,-2.59277 3.05945,-2.02465 4.60338,-2.44222 7.04613,-1.9057 4.23084,0.92924 4.66078,2.75647 1.59452,6.77654 -3.17893,4.1678 -2.31821,5.60744 4.89853,8.19333 6.76579,2.4243 7.54772,3.35362 4.52171,5.37395 -4.17462,2.78721 -6.00399,5.03725 -5.39204,6.63197 0.32137,0.83747 1.15048,1.52268 1.84246,1.52268 0.69198,0 2.44384,0.93266 3.89301,2.07258 3.09303,2.43298 3.56018,7.24747 0.97987,10.09868 -1.54009,1.70178 -1.5397,1.95613 0.006,3.66364 0.9133,1.00919 6.42038,4.25374 12.23795,7.21009 10.18026,5.17338 13.41146,8.0973 13.41146,12.13602 0,0.70419 0.9787,3.64164 2.1749,6.52767 2.04011,4.92214 2.0711,5.36201 0.5,7.09806 -1.87338,2.07006 -2.19176,4.75579 -0.6749,5.69326 2.12574,1.31378 0.92357,5.06093 -2.50003,7.79263 -1.92498,1.53595 -3.49997,3.3787 -3.49997,4.09501 0,0.71631 -0.9,2.11687 -2,3.11236 -1.1,0.99549 -2,2.90675 -2,4.24726 0,1.3405 -0.9,3.58145 -2,4.97987 -2.63508,3.34996 -2.53906,3.94275 0.92913,5.73622 4.50505,2.32965 4.93244,5.31162 1.18196,8.24681 -2.39408,1.87365 -3.11109,3.21843 -3.11109,5.83498 0,4.85151 4.66627,14.18578 7.85579,15.71447 3.18193,1.52506 3.9982,4.50737 1.46812,5.36391 -9.96709,3.37431 -11.94247,5.92112 -8.82391,11.37648 0.78602,1.375 1.44508,3.6824 1.46456,5.12756 0.0195,1.44515 0.65621,3.14274 1.41493,3.77242 1.92655,1.5989 2.87038,7.09402 1.5017,8.74318 -0.61976,0.74626 -2.1413,1.35684 -3.38161,1.35684 -2.75657,0 -4.29557,1.72784 -5.09376,5.71878 -0.48664,2.4332 -0.14937,3.34773 1.71657,4.65469 1.27721,0.89459 3.22343,1.62653 4.32494,1.62653 1.1015,0 5.09623,1.21369 8.87718,2.6971 4.82783,1.89413 7.13511,3.3827 7.75001,5 0.63636,1.67377 1.66844,2.3029 3.77786,2.3029 1.59627,0 3.46251,0.675 4.1472,1.5 0.68469,0.825 2.75564,1.5 4.60212,1.5 2.90179,0 3.63007,-0.5348 5.36837,-3.94215 1.10612,-2.16819 1.73569,-4.65995 1.39904,-5.53725 -0.33665,-0.8773 0.17082,-2.4602 1.12771,-3.51755 1.09675,-1.2119 1.5267,-2.77153 1.16324,-4.21967 -0.84225,-3.3558 3.20924,-9.94534 7.36903,-11.98535 5.66488,-2.77812 16.47924,-1.68928 20.20261,2.03409 2.21069,2.21069 6.23339,1.22668 10.9631,-2.68173 4.13592,-3.41772 5.46043,-3.92413 11.80625,-4.51391 6.25666,-0.58149 7.46686,-0.41325 9.70797,1.34961 1.40815,1.10765 3.17754,2.01391 3.93196,2.01391 0.75443,0 4.5425,3.11471 8.41794,6.92158 8.43447,8.28524 13.25838,12.07842 15.36052,12.07842 0.85431,0 2.16463,1.4625 2.91182,3.25 0.74718,1.7875 2.10322,3.8676 3.01342,4.62244 0.91019,0.75485 1.66233,1.87985 1.67142,2.5 0.009,0.62016 2.03408,3.07601 4.5,5.45744 2.90808,2.80846 4.48348,5.18896 4.48348,6.77475 0,1.68773 0.77422,2.73923 2.5,3.39537 2.0198,0.76793 2.5,1.63356 2.5,4.50663 0,2.28217 0.55263,3.7682 1.5426,4.14809 2.7256,1.04591 5.4574,7.89518 5.4574,13.683 0,3.59551 0.50445,5.83605 1.5,6.66228 1.80783,1.50036 1.94325,4.15675 0.29589,5.80411 -0.66226,0.66226 -1.09797,2.78014 -0.96824,4.7064 0.12972,1.92626 -0.27486,4.4566 -0.89908,5.62296 -1.00373,1.87548 -1.7258,2.05069 -6.24517,1.51544 -4.77746,-0.56582 -5.54198,-1.07261 -11.74059,-7.78263 -4.43014,-4.79564 -7.05198,-6.91684 -7.90087,-6.3922 -1.75337,1.08364 -0.70796,8.13249 1.58128,10.66207 1.9287,2.1312 1.28433,4.25802 -1.89832,6.26558 -2.70585,1.70681 -10.07378,-0.92354 -16.69767,-5.96104 -3.91903,-2.98045 -6.80949,-4.46865 -8.27501,-4.26053 -2.11367,0.30016 -2.32514,1.0534 -3.43759,12.24428 -1.431,14.39529 -1.65197,15.30964 -4.57165,18.91646 l -2.29968,2.8409 -4.97165,-6.82402 c -6.95467,-9.54588 -11.42777,-14.35885 -13.33801,-14.35146 -0.8985,0.003 -2.40021,1.35348 -3.33713,3 -1.36657,2.40159 -2.37426,2.99368 -5.09501,2.99368 -2.12153,0 -4.06929,-0.74892 -5.2015,-2 -1.92343,-2.12536 -4.01837,-2.58831 -4.94296,-1.0923 -0.30854,0.49924 1.2399,3.186 3.44099,5.97059 2.20108,2.78458 4.00197,5.34415 4.00197,5.68792 0,0.34378 -0.87864,1.85899 -1.95254,3.36713 -1.95006,2.73861 -1.94964,2.74641 0.32746,6.15437 1.254,1.87676 2.5487,4.14813 2.8771,5.04749 0.77848,2.1319 -1.86535,5.8648 -4.15374,5.8648 -0.98357,0 -2.5924,0.88852 -3.57518,1.97448 -1.53212,1.69296 -1.61247,2.39554 -0.56362,4.9277 1.55976,3.7656 3.87711,5.82493 7.04052,6.25664 l 2.5,0.34118 0.1747,13.3747 c 0.0961,7.35608 0.54821,13.74821 1.00472,14.20472 0.45651,0.45651 5.55289,3.2572 11.3253,6.22377 11.65639,5.99048 13.379,7.95015 12.4794,14.19681 -1.20043,8.33548 -1.41724,20.1196 -0.42592,23.14931 0.56674,1.73213 0.7524,4.25714 0.41257,5.61114 -0.66961,2.66791 -10.28686,10.25079 -16.97077,13.38087 l -4,1.8732 -0.27295,32.99274 c -0.27771,33.56895 0.45737,44.38155 3.22513,47.4399 3.28101,3.62547 1.15928,6.9588 -4.54,7.13257 -1.8767,0.0572 -21.86218,0.0224 -44.41218,-0.0773 -22.55,-0.0997 -42.13855,0.10788 -43.53011,0.46133 -1.39157,0.35346 -2.85482,0.31795 -3.25167,-0.0789 z m -43.48922,-6.94721 c 0.30928,-0.30928 26.6038,-0.52092 58.43227,-0.47031 41.36367,0.0658 58.8141,-0.23712 61.1801,-1.06191 2.45064,-0.85429 3.60208,-0.862 4.43439,-0.0297 3.6973,3.6973 4.69873,-1.2518 3.63509,-17.96467 -1.38432,-21.75142 -1.80881,-50.04929 -0.79094,-52.72648 0.58408,-1.53624 0.47461,-3.80593 -0.30984,-6.4242 -1.06773,-3.56378 -1.87753,-4.34128 -6.76154,-6.4919 -3.05169,-1.34378 -6.3586,-3.1691 -7.3487,-4.05626 -1.66023,-1.48764 -2.07046,-1.46746 -5.27732,0.25955 -3.36913,1.8144 -3.5928,1.81621 -7.19983,0.0584 -2.45663,-1.19716 -6.78351,-1.95386 -12.72268,-2.22499 -4.95,-0.22598 -10.0125,-0.91314 -11.25,-1.52704 -1.65773,-0.82236 -2.84227,-0.82096 -4.5,0.005 -2.78947,1.39037 -12.16635,1.34701 -16.43417,-0.076 -2.30309,-0.76792 -3.5607,-0.7492 -4.54496,0.0677 -0.87407,0.72541 -4.90166,1.01046 -11.26044,0.79694 -5.4448,-0.18283 -11.04956,0.068 -12.45503,0.55731 -1.40547,0.48936 -5.4804,1.31587 -9.0554,1.83671 -15.16037,2.20868 -17.77758,3.10538 -20.49077,7.02052 l -2.5368,3.66061 -0.0941,38.92635 c -0.0518,21.4095 -0.0456,39.26386 0.0138,39.67636 0.12502,0.86892 4.50175,1.02283 5.33691,0.18767 z m -17.729,-89.12652 c 2.2,-0.29028 4.81397,-1.24774 5.80883,-2.12769 1.02952,-0.91062 3.18368,-1.4951 5,-1.35664 1.75514,0.1338 4.09117,-0.19626 5.19117,-0.73346 4.76017,-2.32469 13.10709,-3.54971 30.93969,-4.54081 8.32007,-0.46241 12.78698,-1.16409 14.73454,-2.31454 2.41185,-1.42472 3.28638,-1.47323 6.38158,-0.35399 3.16174,1.1433 3.81783,1.08782 5.53732,-0.46831 1.78011,-1.61097 2.23279,-1.63412 5.17874,-0.26484 2.43276,1.13075 4.95284,1.33247 10.22813,0.81873 4.5507,-0.44317 8.80112,-0.23571 12.14753,0.59294 2.83115,0.70105 6.88115,1.049 9,0.77323 2.11886,-0.27577 7.90247,0.21374 12.85247,1.08779 22.3543,3.94725 21.44159,3.68567 23.64184,6.77564 1.78881,2.51214 2.50558,2.81943 5.21597,2.23614 5.08901,-1.09518 8.64219,-3.32598 8.64219,-5.42584 0,-2.39717 -1.83265,-3.34394 -9.5,-4.90784 -6.22354,-1.26941 -12.09229,-3.01173 -21.5,-6.38294 -5.0983,-1.82696 -8.14109,-1.96773 -41.66129,-1.92747 -21.3082,0.0256 -36.91652,0.44136 -38,1.01223 -1.01129,0.53285 -6.56371,1.2948 -12.33871,1.69323 -5.775,0.39844 -10.96438,1.09834 -11.53196,1.55534 -0.56758,0.45701 -4.81854,1.30572 -9.44659,1.88603 -4.62805,0.58031 -8.86617,1.50664 -9.41804,2.05851 -0.55188,0.55188 -2.23685,1.00341 -3.74439,1.00341 -1.50754,0 -3.0191,0.45 -3.35902,1 -0.33992,0.55 -1.66138,1 -2.93657,1 -1.2752,0 -2.87874,0.675 -3.56343,1.5 -0.68469,0.825 -1.87891,1.5 -2.65383,1.5 -2.0297,0 -2.79167,2.75827 -1.26886,4.59315 0.88621,1.06782 2.11758,1.35693 3.86187,0.90673 1.40845,-0.36353 4.36082,-0.89846 6.56082,-1.18873 z m 0.35361,-13.23174 c 4.77927,-2.00138 9.04708,-3.07941 12.19099,-3.07941 2.66055,0 5.08714,-0.40415 5.39243,-0.89811 0.30528,-0.49396 3.81934,-1.20466 7.80902,-1.57933 3.98967,-0.37467 11.75395,-1.81948 17.25395,-3.2107 9.1015,-2.3022 12.23148,-2.5602 34.83563,-2.87138 14.13404,-0.19457 26.24935,-0.80847 28.1165,-1.42468 2.74483,-0.90588 4.56891,-0.66185 11.16437,1.49357 4.53596,1.48236 8.88884,2.32521 10.25109,1.98492 1.44502,-0.36096 3.02047,-5.8e-4 4.04305,0.92484 0.92149,0.83394 5.03108,2.03872 9.1324,2.67728 4.10133,0.63857 10.24552,2.28544 13.65375,3.65972 7.34139,2.96021 9.87454,2.52178 8.75608,-1.51545 -0.4176,-1.50737 -1.02784,-7.69068 -1.35607,-13.74068 l -0.5968,-11 -6.84902,-3.29687 c -4.69342,-2.25924 -8.94229,-3.48259 -13.5,-3.88695 -3.65804,-0.32454 -7.16653,-0.99458 -7.79665,-1.48898 -0.68302,-0.53591 -3.86964,-0.46376 -7.89112,0.17868 -6.38608,1.02018 -6.87339,0.9574 -9.14668,-1.17824 -2.05049,-1.92634 -2.6938,-2.07313 -4.40424,-1.00494 -1.13043,0.70597 -3.39907,1.00946 -5.20765,0.69668 -1.76255,-0.30483 -14.00464,-0.0775 -27.20464,0.50512 -35.47981,1.56606 -35.42675,1.56245 -43,2.92607 -3.85,0.69322 -8.35,1.42206 -10,1.61965 -13.99394,1.67576 -24.12949,4.24243 -31.61428,8.00583 -4.35498,2.18972 -4.65164,2.60173 -5.27912,7.3319 -0.36566,2.7565 -0.37337,6.17313 -0.0171,7.59252 0.35624,1.41939 0.0867,4.5844 -0.59895,7.03335 -1.01243,3.61606 -1.00087,4.7488 0.0616,6.02893 1.48225,1.78601 1.73168,1.73352 11.80153,-2.48334 z m 22.34705,-39.45539 c 0.4169,0.25766 1.77981,-0.11329 3.02867,-0.82434 2.30743,-1.31373 8.10567,-1.77003 47.27067,-3.72002 14.68386,-0.73109 25.65807,-0.77603 33,-0.13512 20.22286,1.76533 32.26164,2.25015 32.83507,1.32232 0.30937,-0.50056 0.69803,-5.07818 0.86371,-10.1725 0.27797,-8.54754 0.13013,-9.40126 -1.91562,-11.06181 -3.13327,-2.5433 -19.8978,-4.41678 -33.96708,-3.79591 -6.248,0.27573 -11.56345,0.17212 -11.81212,-0.23023 -0.24866,-0.40234 -10.02019,-0.68088 -21.7145,-0.61897 -18.47831,0.0978 -21.30199,0.31836 -21.56491,1.68428 -0.17267,0.89707 0.78732,2.06829 2.23646,2.72856 4.29998,1.9592 3.2103,4.56766 -2.71101,6.48955 -5.7543,1.86769 -7.66589,2.09729 -15.53333,1.86569 -4.60328,-0.1355 -5.73385,-0.60603 -8.78334,-3.65552 -1.925,-1.925 -3.87779,-3.5 -4.33955,-3.5 -1.58521,0 -9.82983,3.97704 -10.85939,5.23836 -1.66099,2.03489 -2.00224,18.66606 -0.40332,19.65588 0.73477,0.45486 4.08185,0.24997 7.47133,-0.45735 3.37714,-0.70474 6.48136,-1.07053 6.89826,-0.81287 z m 19.97451,-26.5105 c -0.25879,-4.12865 0.19184,-6.06405 2.21615,-9.51829 2.61566,-4.46328 3.47199,-4.93213 16.62414,-9.10184 2.48351,-0.78737 7.3771,-3.35798 10.87466,-5.71248 8.02792,-5.40427 17.96626,-19.21867 20.00969,-27.81369 1.91725,-8.06426 1.12963,-22.29596 -1.54777,-27.96722 -1.16845,-2.475 -2.61036,-5.72509 -3.20424,-7.22241 -0.69929,-1.7631 -2.0608,-2.92435 -3.86379,-3.29547 -1.53121,-0.31518 -4.41122,-1.00259 -6.40003,-1.52759 -5.6626,-1.49477 -6.75086,-1.20514 -10.50361,2.79547 -4.35237,4.63985 -5.70908,7.76729 -4.4169,10.18174 0.63892,1.19383 0.57679,2.82599 -0.18433,4.84242 -1.04477,2.76791 -0.87445,3.35325 1.89264,6.5048 2.36984,2.6991 3.18994,4.78213 3.71706,9.44129 0.39233,3.46772 0.24273,7.1186 -0.35625,8.69402 -0.56792,1.49376 -1.03427,4.14913 -1.03633,5.90083 -0.002,1.75169 -0.91189,4.67445 -2.02186,6.49502 -2.38701,3.91516 -1.88949,5.18988 2.0256,5.18988 3.61415,0 4.51329,1.34385 2.34793,3.50921 -1.20341,1.20341 -2.53404,1.48456 -4.75919,1.00558 -5.69492,-1.22587 -8.27681,-0.833 -14.70079,2.23692 -3.51337,1.67899 -8.87601,3.34167 -11.91696,3.69484 -5.1629,0.59962 -5.80983,0.98684 -9.76994,5.8478 -4.44235,5.4529 -5.81705,8.658 -4.82373,11.24654 0.45105,1.17543 1.04385,1.30407 2.47636,0.53742 2.17187,-1.16235 3.14632,-0.51556 3.14632,2.08836 0,2.27351 2.55981,2.42283 3.41314,0.19909 0.34491,-0.89884 0.34387,-3.14408 -0.002,-4.98944 -0.48536,-2.58721 -0.25121,-3.50034 1.023,-3.9893 2.33671,-0.89668 2.80284,-0.10989 3.65492,6.16915 1.41269,10.41015 6.7015,14.37027 6.08643,4.55735 z m 29.02483,-36.31352 c -1.77139,-1.77139 -1.54301,-2.39032 2.3,-6.23333 3.97207,-3.97208 4.39531,-6.67136 1.5,-9.56667 -2.46526,-2.46526 -2.50091,-3 -0.2,-3 2.66685,0 4.2,-2.00769 4.2,-5.5 0,-3.52701 -1.53654,-5.5 -4.28333,-5.5 -2.41108,0 -1.68937,-2.38091 0.8662,-2.85761 4.67591,-0.87221 5.84924,-5.15224 2.5346,-9.24565 -1.67269,-2.06568 -2.17953,-2.1895 -4.54705,-1.11078 -3.37116,1.536 -3.57042,1.5229 -3.57042,-0.23486 0,-1.57789 10.49562,-5.38882 11.65319,-4.23124 1.36412,1.36412 2.76784,13.4036 2.51396,21.5618 -0.18462,5.93234 -0.8316,9.50045 -2.214,12.21017 -1.07423,2.10567 -1.95315,4.43277 -1.95315,5.17133 0,1.53188 -5.80307,9.73684 -6.88651,9.73684 -0.39242,0 -1.25349,-0.54 -1.91349,-1.2 z m 55.03307,27.45 c 1.24875,-1.41623 1.46675,-3.84798 1.143,-12.75 -0.84422,-23.21324 -1.10423,-26.17392 -2.81019,-32 -0.96629,-3.3 -2.40166,-8.22866 -3.18972,-10.95257 -0.78806,-2.72391 -2.0611,-5.64891 -2.82898,-6.5 -0.76788,-0.85109 -2.75979,-5.59743 -4.42647,-10.54743 -7.53315,-22.37333 -9.90653,-26.76348 -19.51716,-36.10174 -5.99685,-5.82691 -8.22374,-7.06261 -15.9156,-8.83161 -8.71747,-2.00486 -12.75974,-1.97693 -17.15402,0.11856 -3.13194,1.49352 -4.90492,4.31479 -2.71156,4.31479 2.05406,0 6.48051,8.77288 7.06384,14 l 0.61379,5.5 9.5,1.04606 c 14.25771,1.56993 17.22385,3.63349 21.49468,14.95394 4.06778,10.7822 4.34231,12.67584 3.58723,24.74314 -0.77011,12.30747 -1.31697,13.81757 -7.73693,21.36467 -2.38974,2.8093 -4.34498,5.5723 -4.34498,6.13999 0,0.5677 -2.01612,3.77088 -4.48026,7.11818 -2.93923,3.99267 -5.43294,6.32078 -7.25,6.76856 -1.52336,0.37541 -4.22188,1.78172 -5.99671,3.12513 -1.77483,1.34342 -5.13212,2.87063 -7.46063,3.39382 -4.25729,0.95654 -6.8124,2.4134 -6.8124,3.88424 0,0.43607 11.5875,0.84497 25.75,0.90866 14.1625,0.0637 28.45,0.49282 31.75,0.9536 9.17845,1.28158 10.07365,1.23199 11.73307,-0.64999 z m 13.14274,-16.39013 c -0.0683,-1.29793 -0.73821,-3.84556 -1.48869,-5.66141 -1.19539,-2.89234 -1.15627,-3.66437 0.31558,-6.22892 1.6196,-2.82199 1.59074,-3.08112 -0.80162,-7.19845 -1.36494,-2.3491 -3.02606,-5.06721 -3.69139,-6.04024 -0.97673,-1.42846 -0.86834,-2.36637 0.56287,-4.87035 1.45295,-2.54201 1.54499,-3.39505 0.51045,-4.73085 -2.26219,-2.92095 -5.86359,-6.12965 -6.87984,-6.12965 -1.26878,0 -0.13187,6.52082 1.80283,10.34026 0.79129,1.56214 1.19831,3.46671 0.9045,4.23238 -0.29382,0.76567 0.0965,3.17968 0.8673,5.36445 0.77084,2.18478 1.52129,8.3802 1.66768,13.76762 0.14639,5.38741 0.68844,10.36959 1.20455,11.07151 1.44164,1.96066 5.18169,-0.95378 5.02578,-3.91635 z m -108.31098,1.57801 c 1.47085,-1.40916 5.99224,-3.78686 10.04753,-5.28377 4.56298,-1.68431 7.49379,-3.34751 7.68949,-4.36371 0.27824,-1.44477 -0.82752,-1.60953 -9.20338,-1.3714 -11.91074,0.33864 -14.55429,1.90926 -14.58316,8.66433 -0.0244,5.70309 1.80943,6.41682 6.04952,2.35455 z m 25.29413,-16.68788 c 2.34504,-3.75522 2.83748,-12.79927 0.99905,-18.34849 -0.89311,-2.69583 -2.03715,-5.35151 -2.54231,-5.90151 -1.24776,-1.35851 -29.89269,-0.63507 -31.65256,0.79939 -1.60502,1.30825 -0.75146,14.29853 1.34022,20.39672 l 1.30474,3.80389 11.34595,0.55053 c 6.24027,0.3028 12.79808,0.6403 14.5729,0.75 2.39617,0.14812 3.58868,-0.37979 4.63201,-2.05053 z m -97.51862,-6.05763 c 0.59688,-0.71919 1.6719,-3.08169 2.38892,-5.25 1.15064,-3.47953 1.65396,-3.92507 4.28722,-3.79505 1.64093,0.081 6.13352,1.07833 9.98352,2.21623 3.85,1.1379 13.525,2.78051 21.5,3.65024 7.975,0.86974 15.22397,1.79509 16.10882,2.05635 2.97667,0.87889 4.28011,-2.09651 2.99068,-6.82691 -0.63615,-2.33378 -1.03128,-6.04323 -0.87807,-8.24323 l 0.27857,-4 -4.5,0.22987 c -17.90172,0.91448 -38.39983,0.69376 -39.87519,-0.42937 -0.89365,-0.68029 -2.41231,-1.2512 -3.37481,-1.2687 -0.9625,-0.0175 -2.68157,-0.96337 -3.82016,-2.10196 -1.98497,-1.98497 -2.05759,-2.94934 -1.76461,-23.43128 0.16805,-11.74861 -0.047,-21.71367 -0.47791,-22.14457 -0.78201,-0.78202 -16.79942,-0.55069 -17.62065,0.25449 -0.23834,0.23367 0.0992,0.95735 0.75,1.60819 1.77319,1.77319 1.42985,3.4856 -0.81667,4.07308 -3.02321,0.79059 -2.41957,3.66803 1.02111,4.86745 1.66161,0.57924 3.49895,1.94603 4.08298,3.0373 0.58403,1.09127 1.44307,8.80644 1.90898,17.14482 0.46591,8.33837 1.30792,16.73568 1.87115,18.66068 0.56322,1.925 1.58443,5.40046 2.26936,7.72324 1.14897,3.89649 1.07515,4.40439 -0.95413,6.56446 -2.50164,2.66287 -2.70842,3.80333 -0.99945,5.5123 1.57877,1.57877 4.2836,1.52715 5.64034,-0.10763 z m -3.17367,-54.35904 c -1.03011,-1.0301 -0.78754,-11.14059 0.28316,-11.80232 1.77465,-1.0968 3.1802,3.41906 2.49219,8.00707 -0.64222,4.28265 -1.33736,5.23324 -2.77535,3.79525 z M 440.197,567.60496 c 0.77953,-4.1552 -0.11826,-8.33825 -2.31203,-10.77247 -1.4618,-1.62203 -1.43637,-1.87932 0.31212,-3.15785 1.69244,-1.23754 1.76669,-1.77053 0.66938,-4.80509 -0.67881,-1.87724 -1.23421,-4.16871 -1.23421,-5.09216 0,-2.73231 3.71642,-5.679 7.16245,-5.679 3.82063,0 11.90384,4.88801 17.0146,10.28893 2.25062,2.37839 4.38423,3.75162 5.5,3.53989 2.85114,-0.54103 2.79197,-5.04887 -0.12265,-9.34379 -3.07824,-4.53605 -3.16565,-5.87378 -0.5544,-8.48503 2.44517,-2.44517 8.78989,-2.67713 13.04466,-0.4769 1.61994,0.8377 4.75129,3.8752 6.95856,6.75 5.91799,7.70771 6.07481,7.86703 7.33621,7.45313 2.67967,-0.8793 1.79454,-7.36381 -2.03803,-14.93059 -7.73265,-15.26685 -10.32424,-20.01067 -12.35826,-22.62136 -1.14596,-1.47086 -4.45588,-5.72316 -7.35537,-9.44956 -5.13552,-6.60012 -19.03726,-19.12882 -27.08777,-24.41239 -2.2,-1.44386 -5.21928,-3.45481 -6.70951,-4.46877 -5.62163,-3.82499 -10.04863,-1.45205 -11.4213,6.12198 -0.3523,1.94395 -2.54961,7.58446 -4.8829,12.53446 -3.3581,7.12411 -5.72629,10.48605 -11.3619,16.12966 -7.46411,7.47469 -17.817,13.54692 -25.45423,14.92954 -2.10641,0.38133 -4.08538,1.35927 -4.39771,2.17319 -0.85609,2.23095 3.14881,9.66 6.66977,12.37234 1.71015,1.3174 6.20143,4.98277 9.98061,8.14527 3.77919,3.1625 7.36154,5.75 7.96079,5.75 0.59925,0 1.73299,-1.54 2.51943,-3.42222 2.42039,-5.79281 10.17465,-8.88176 15.4491,-6.15424 4.41731,2.28428 12.57271,11.5516 11.29234,12.83197 -1.19246,1.19246 -1.99156,0.87771 -10.64449,-4.19271 -7.59826,-4.45242 -11.5,-3.74655 -11.5,2.0805 0,1.64586 -0.83305,3.32678 -2.08241,4.20187 -2.56501,1.7966 -2.26314,5.97312 0.46939,6.49432 1.21791,0.2323 3.21573,-1.09372 5.63448,-3.73979 2.06112,-2.25483 4.49376,-4.0997 5.40586,-4.0997 2.51596,0 11.02453,8.45802 13.06861,12.99097 2.22633,4.93712 4.20164,5.13805 5.06881,0.5156 z M 315.71389,545.04794 c 0.58418,-0.36104 0.8725,-5.0839 0.70392,-11.53054 l -0.28555,-10.91901 -3,0.30516 c -5.09236,0.51798 -8.81247,0.4319 -13.60357,-0.31479 -2.79255,-0.43522 -5.39461,-0.29412 -6.61435,0.35866 -2.92447,1.56513 -7.28208,11.10601 -7.28208,15.94394 0,6.44865 1.96129,7.26624 16.77806,6.9942 6.77276,-0.12436 12.75936,-0.50128 13.30357,-0.83762 z m 9.47039,-28.99272 c 1.9197,-1.59321 1.70582,-2.67544 -2.85711,-14.45683 -3.80004,-9.81164 -5.14749,-10.87135 -10.37723,-8.16117 -7.71094,3.996 -18.31768,16.32932 -18.31768,21.29945 0,1.9283 0.60234,2.29031 4.25,2.55422 10.44374,0.75563 25.73663,0.0635 27.30202,-1.23567 z m 54.00729,-3.86087 c -0.85865,-1.38931 -3.24118,-1.41972 -4.08638,-0.0522 -0.35481,0.5741 -0.0825,1.72168 0.60508,2.55019 1.09379,1.31794 1.43211,1.32446 2.70441,0.0522 0.79983,-0.79983 1.14943,-1.94741 0.77689,-2.55019 z m 12.99005,0.31897 c 8.09894,-3.38396 24.45064,-20.52183 24.45064,-25.62621 0,-2.83166 -4.4512,-9.42527 -8.52722,-12.63147 -3.15907,-2.48493 -7.6756,-2.81157 -9.77988,-0.7073 -0.79747,0.79748 -1.76257,3.95212 -2.14467,7.01032 -0.4277,3.42319 -1.54607,6.6134 -2.9097,8.30005 -1.21823,1.50683 -2.87277,3.72448 -3.67675,4.92812 -0.80398,1.20364 -3.3894,4.63979 -5.74537,7.63591 l -4.28359,5.44747 2.13237,3.61409 c 2.42043,4.10233 4.5402,4.51257 10.48417,2.02902 z m -86.99319,-21.88849 c 2.00474,-1.36045 5.15869,-2.75752 7.00878,-3.1046 3.98874,-0.7483 4.69375,-1.55474 6.31595,-7.22471 1.94954,-6.81412 5.29532,-6.7457 6.78842,0.13882 0.73626,3.39478 2.93266,4.49064 4.95237,2.47093 0.80664,-0.80664 2.62202,-5.93067 4.03418,-11.38675 5.41217,-20.91064 3.114,-60.48537 -3.4392,-59.22334 -1.21444,0.23388 -1.94898,1.88077 -2.56502,5.75094 l -0.86324,5.42321 -1.79937,-2.38547 c -2.21033,-2.9303 -6.51852,-3.12265 -13.11804,-0.58566 -5.95262,2.28831 -7.39947,4.90591 -6.22688,11.2655 l 0.89143,4.83469 4.48222,-0.2678 c 2.46523,-0.1473 6.14694,-0.38383 8.18159,-0.52564 2.0848,-0.1453 4.81589,-1.22863 6.25761,-2.48219 1.40703,-1.22341 2.80278,-2.22437 3.10166,-2.22437 0.29888,0 1.2085,1.59176 2.02138,3.53725 1.2073,2.88946 1.26053,4.26294 0.29068,7.5 -1.43521,4.7903 -2.83608,4.9841 -4.98805,0.69004 -1.55042,-3.09371 -1.83529,-3.21517 -6.88233,-2.93454 -9.60135,0.53386 -14.34669,4.83042 -14.4451,13.079 l -0.0552,4.62825 7.915,-0.24857 c 5.7657,-0.18108 8.83042,-0.78869 11.28614,-2.2376 2.95587,-1.74401 3.44464,-1.7975 3.96779,-0.43419 1.0245,2.66978 -0.40572,13.3697 -2.14108,16.0182 -2.36146,3.60405 -3.95059,2.50216 -4.52785,-3.13958 -0.47565,-4.64867 -0.67045,-4.92126 -4,-5.59737 -7.90986,-1.6062 -12.98829,2.19444 -14.91087,11.15914 -1.40272,6.54064 -1.38111,6.99985 0.42317,8.99356 1.36064,1.50349 1.2587,2.04476 -1.01652,5.3975 -1.39086,2.04953 -2.26983,4.14548 -1.95329,4.65767 0.79274,1.28268 0.89898,1.25 5.01368,-1.54232 z m 37.44383,-25.46742 c 0,-2.28437 -1.57662,-3.55308 -2.51951,-2.02744 -0.84004,1.35919 0.1384,3.96842 1.48813,3.96842 0.56726,0 1.03138,-0.87344 1.03138,-1.94098 z m -87.25098,-17.98704 c 1.89142,-0.54245 6.04486,-3.76236 9.99692,-7.75 11.76803,-11.87398 29.2286,-21.23162 47.25406,-25.32484 3.025,-0.68692 6.0625,-1.40317 6.75,-1.59166 0.6875,-0.18849 1.25,-1.45528 1.25,-2.81508 0,-1.3598 0.45,-2.75048 1,-3.0904 1.79872,-1.11167 1.05161,-4.3712 -1.55614,-6.78925 -2.26729,-2.10235 -2.42194,-2.66474 -1.36855,-4.9767 1.71114,-3.75554 0.62347,-5.4402 -4.01872,-6.22449 -2.4869,-0.42016 -4.48218,-1.43627 -5.10481,-2.59966 -0.56218,-1.05045 -1.57879,-1.9099 -2.25912,-1.9099 -1.82047,0 -8.47756,5.74693 -9.1646,7.91161 -0.32554,1.02567 -2.31417,3.00461 -4.41918,4.39764 -2.52318,1.66976 -4.02817,3.53718 -4.41683,5.48051 -0.43049,2.15242 -2.05999,3.92375 -6.03957,6.56525 -6.55715,4.35239 -10.66412,6.03335 -11.8481,4.84937 -1.2405,-1.2405 0.0564,-4.02543 2.18998,-4.70259 2.47937,-0.78692 17.00564,-16.12469 17.00564,-17.95565 0,-1.85864 -3.0768,-3.54614 -6.46564,-3.54614 -1.42842,0 -2.83677,-0.6245 -3.12967,-1.38779 -0.2929,-0.76328 -1.75797,-1.63287 -3.2557,-1.93241 -3.04815,-0.60963 -8.36402,-5.03572 -10.0455,-8.36406 -0.60692,-1.20134 -1.10349,-4.41506 -1.10349,-7.14159 0,-4.45383 -0.25392,-5.02106 -2.5,-5.58479 -4.46559,-1.1208 -2.98664,-5.4265 2.43655,-7.09357 1.3401,-0.41194 3.8151,-2.20282 5.5,-3.97973 l 3.06345,-3.23075 8.23631,0.48504 c 7.66539,0.45141 8.36419,0.3271 10.08128,-1.79341 2.5125,-3.10281 6.47187,-2.10655 8.19896,2.06302 1.08219,2.61264 1.72742,3.0207 4.3684,2.76272 4.02397,-0.39306 4.29442,-2.20965 1.32759,-8.91731 -1.67841,-3.7947 -3.63606,-6.25429 -6.62781,-8.32719 -3.83225,-2.65527 -5.04667,-2.94749 -12.46724,-3 -7.41478,-0.0525 -8.87224,0.27215 -14.85492,3.30868 -7.80696,3.96245 -9.47602,5.63093 -13.6378,13.63314 -4.31715,8.30094 -4.38992,15.86586 -0.21006,21.83652 2.74258,3.9176 2.90263,4.68939 2.71011,13.06878 l -0.2046,8.90529 -7.81739,7.3745 c -4.29957,4.05598 -9.09128,8.03326 -10.64826,8.8384 -2.51415,1.30012 -2.76651,1.86055 -2.25558,5.00905 0.50755,3.12762 0.1175,4.02102 -3.31184,7.58579 -5.81735,6.04708 -8.53233,6.88167 -22.38642,6.88167 -13.73876,0 -14.36632,0.38514 -11.91683,7.31344 2.25895,6.38934 5.637,8.22162 14.75126,8.00117 16.25102,-0.39305 24.12146,-3.1695 32.87282,-11.59653 4.02291,-3.87381 4.18224,-4.25359 3.62253,-8.63505 -0.40831,-3.19639 -1.49458,-5.54641 -3.59026,-7.76712 -5.47626,-5.80298 -1.39155,-8.48155 5.64377,-3.70093 l 3.8483,2.61498 -0.66716,5.89684 c -0.55351,4.89241 -0.3943,6.00154 0.93473,6.51153 0.90539,0.34743 2.55803,-0.22273 3.80099,-1.31134 2.51736,-2.20476 12.57418,-9.07506 16.65454,-11.37753 1.5113,-0.85279 4.95209,-2.94212 7.6462,-4.64294 2.69411,-1.70082 5.82228,-3.36778 6.95149,-3.70436 1.12922,-0.33657 3.03587,-2.63475 4.23701,-5.10706 1.8615,-3.83152 2.62348,-4.4951 5.1617,-4.4951 3.32174,0 5.54454,2.86074 4.58119,5.89599 -0.50359,1.58669 -1.97702,2.44468 -9.53301,5.55114 -0.825,0.33918 -3.975,2.15476 -7,4.03462 -3.025,1.87986 -7.3,4.39128 -9.5,5.58094 -2.2,1.18966 -4.9,2.98338 -6,3.98605 -2.05849,1.87636 -9.43542,6.71386 -23.5623,15.45126 -10.537,6.51707 -13.42696,8.89935 -12.53893,10.33621 0.86127,1.39356 8.82299,1.53417 13.35025,0.23577 z m -43.73845,-9.55925 c -1.61949,-1.95136 -0.57762,-4.51273 1.8356,-4.51273 2.8864,0 4.71872,2.61442 3.15383,4.5 -1.5819,1.90608 -3.41421,1.91075 -4.98943,0.0127 z m 32.6561,-11.1794 c -1.10459,-1.10459 -0.72338,-2.70167 1.26126,-5.28404 1.60765,-2.09182 2.11694,-2.25694 3.47777,-1.12755 2.01857,1.67526 2.02616,3.50354 0.0229,5.50683 -1.65059,1.6506 -3.63839,2.02828 -4.7619,0.90476 z m 99.75912,9.99945 c 0.35188,-0.91697 0.20527,-2.10172 -0.32579,-2.63278 -1.47255,-1.47255 -4.1,-0.0187 -4.1,2.26862 0,2.50822 3.49276,2.79562 4.42579,0.36416 z m -4.97858,-26.41819 c -0.32197,-0.52097 -1.01165,-0.68378 -1.53262,-0.3618 -0.52097,0.32197 -0.68378,1.01165 -0.3618,1.53262 0.32197,0.52097 1.01165,0.68378 1.53262,0.3618 0.52097,-0.32197 0.68378,-1.01165 0.3618,-1.53262 z m -2.46923,-7.88027 c 3.83816,-5.98126 5.9383,-14.15954 5.9864,-23.31205 0.0301,-5.73328 -0.48783,-7.8369 -3.36122,-13.65096 -5.45551,-11.03877 -7.4163,-13.21877 -11.57446,-12.86839 -2.95301,0.24883 -3.80325,0.88897 -5.23536,3.94164 -0.94038,2.0045 -2.92303,4.59889 -4.40589,5.76531 -2.54182,1.9994 -2.80309,2.02396 -4.56541,0.42908 -2.24676,-2.0333 -3.53994,-1.01249 -3.99509,3.15366 -0.22968,2.1023 -1.14509,3.38293 -3.07695,4.30457 -1.90374,0.90822 -2.75,2.07211 -2.75,3.78214 0,2.88362 3.08237,4.42068 8.8651,4.42068 4.03887,0 6.1349,1.40448 6.1349,4.11079 0,1.03843 1.77006,2.56767 4.5038,3.89105 4.87169,2.35834 6.43516,5.37518 4.58109,8.83954 -0.73125,1.36635 -0.76782,2.86238 -0.11213,4.58697 1.29572,3.408 4.06612,7.57165 5.038,7.57165 0.42941,0 2.21466,-2.23456 3.96722,-4.96568 z m -79.63889,-15.36262 1.9749,-4.8283 -4.12208,-4.12208 c -3.84054,-3.84054 -4.56844,-4.15051 -10.657,-4.5382 -7.4903,-0.47695 -7.78512,-0.0236 -4.89905,7.53345 1.75065,4.58402 3.55686,5.32399 6.49815,2.66215 0.98533,-0.89171 2.48326,-1.35583 3.32874,-1.03139 2.04065,0.78307 1.9651,4.31385 -0.11724,5.47919 -2.82927,1.58334 -0.86513,4.35101 2.82971,3.98735 2.76927,-0.27256 3.44889,-0.94933 5.16387,-5.14217 z m 37.66091,-11.45221 c 6.16771,-4.17105 7.21422,-6.97076 4.53921,-12.14368 -2.45841,-4.75403 -5.45025,-6.14728 -13.68676,-6.3737 -6.18004,-0.16988 -7.95042,0.16968 -11.10245,2.12945 -3.38033,2.10172 -3.75,2.75094 -3.75,6.58589 0,3.36956 0.75571,5.22432 3.63377,8.91844 3.56648,4.57772 3.7378,4.66354 9.25,4.6336 4.80217,-0.0261 6.41344,-0.56963 11.11623,-3.75 z m -15.34501,-2.04823 c -3.44525,-3.80695 -1.25696,-7.04113 3.89007,-5.74931 3.33326,0.8366 4.13232,3.17207 1.92123,5.6153 -2.21182,2.44403 -3.68992,2.47811 -5.8113,0.13401 z m 70.16456,3.57874 c -0.17575,-1.2375 -0.99455,-2.25 -1.81955,-2.25 -0.825,0 -1.6438,1.0125 -1.81955,2.25 -0.24594,1.73169 0.17321,2.25 1.81955,2.25 1.64634,0 2.06549,-0.51831 1.81955,-2.25 z m -98.31955,-9.94975 c 1.39717,-1.31643 -3.07383,-4.80025 -6.16044,-4.80025 -5.01682,0 -9.96043,4.0458 -7.70255,6.30368 0.90451,0.90451 12.66048,-0.37042 13.86299,-1.50343 z m 99.54833,-0.6383 c 1.24844,-1.01092 1.97079,-2.32199 1.60524,-2.91347 -0.88868,-1.43792 -9.61329,-5.6221 -10.29707,-4.93831 -1.28596,1.28596 3.57544,9.68983 5.6053,9.68983 0.44915,0 1.83808,-0.82712 3.08653,-1.83805 z m -98.48448,-11.8267 c 0.65845,-5.27008 0.44751,-6.16391 -3.02777,-12.82949 -3.86913,-7.42097 -9.32989,-12.88073 -12.31707,-12.3148 -1.18778,0.22503 -1.81481,1.48015 -2.02902,4.06145 -0.26361,3.17653 0.0689,3.90842 2.22107,4.88902 1.54666,0.7047 2.97928,2.55444 3.68346,4.7559 0.63381,1.98147 2.41149,4.78253 3.95041,6.22459 1.53892,1.44205 3.3546,4.47955 4.03484,6.75 0.68024,2.27044 1.5832,4.12808 2.00656,4.12808 0.42337,0 1.08825,-2.54914 1.47752,-5.66475 z m 64.50985,-0.0722 c 1.28485,-4.26721 1.87258,-4.90007 5.9263,-6.38136 5.17266,-1.89018 6.27968,-4.34147 2.6977,-5.97353 -1.80964,-0.82452 -3.00249,-0.81537 -4.59187,0.0352 -1.18094,0.63202 -2.58786,0.87676 -3.1265,0.54387 -1.8879,-1.16679 -0.9435,-3.57079 3.14544,-8.00677 3.49025,-3.78647 3.92724,-4.71287 2.84066,-6.02211 -0.85927,-1.03536 -2.18301,-1.34984 -4.00106,-0.95052 -1.81562,0.39877 -3.2556,0.0581 -4.34066,-1.02698 -2.11151,-2.11151 -2.05233,-2.94591 0.53552,-7.55037 2.49088,-4.43193 1.58573,-6.59318 -2.98241,-7.12112 -2.17131,-0.25094 -2.77124,-0.93054 -3.17682,-3.59871 -0.275,-1.80915 -0.89676,-3.38415 -1.38169,-3.5 -0.48493,-0.11586 -2.42013,2.71435 -4.30046,6.28935 -4.09745,7.79037 -3.88633,10.52148 1.2531,16.21021 6.00586,6.64778 7.81102,11.90823 7.73466,22.53979 -0.0757,10.53329 1.41707,12.32112 3.76809,4.51301 z m -14.0737,1.20557 c 0,-1.59667 -2.65762,-3.14433 -3.66667,-2.13529 -0.31922,0.31923 -0.31394,1.27482 0.0118,2.12354 0.7669,1.99852 3.65492,2.00779 3.65492,0.0117 z m 40.44695,-2.11326 c 0.82464,-3.28563 -0.26743,-4.40713 -3.19695,-3.2831 -2.47692,0.95036 -2.90407,2.87367 -1.05,4.72774 1.93549,1.93549 3.53516,1.39134 4.24695,-1.44464 z"
       style="fill:#000000;fill-opacity:1" />
  </g>
</svg>
