<?xml version="1.0" encoding="UTF-8" standalone="no"?>
<!-- Created with Inkscape (http://www.inkscape.org/) -->

<svg
   xmlns:dc="http://purl.org/dc/elements/1.1/"
   xmlns:cc="http://creativecommons.org/ns#"
   xmlns:rdf="http://www.w3.org/1999/02/22-rdf-syntax-ns#"
   xmlns:svg="http://www.w3.org/2000/svg"
   xmlns="http://www.w3.org/2000/svg"
   xmlns:sodipodi="http://sodipodi.sourceforge.net/DTD/sodipodi-0.dtd"
   xmlns:inkscape="http://www.inkscape.org/namespaces/inkscape"
   width="352.85471"
   height="553.16486"
   id="svg2"
   version="1.1"
   inkscape:version="0.48.1 r9760"
   sodipodi:docname="New document 1">
  <defs
     id="defs4" />
  <sodipodi:namedview
     id="base"
     pagecolor="#ffffff"
     bordercolor="#666666"
     borderopacity="1.0"
     inkscape:pageopacity="0.0"
     inkscape:pageshadow="2"
     inkscape:zoom="0.69977474"
     inkscape:cx="216.42148"
     inkscape:cy="296.73521"
     inkscape:document-units="px"
     inkscape:current-layer="layer1"
     showgrid="false"
     fit-margin-top="0"
     fit-margin-left="0"
     fit-margin-right="0"
     fit-margin-bottom="0"
     inkscape:window-width="985"
     inkscape:window-height="682"
     inkscape:window-x="0"
     inkscape:window-y="0"
     inkscape:window-maximized="0" />
  <metadata
     id="metadata7">
    <rdf:RDF>
      <cc:Work
         rdf:about="">
        <dc:format>image/svg+xml</dc:format>
        <dc:type
           rdf:resource="http://purl.org/dc/dcmitype/StillImage" />
        <dc:title></dc:title>
      </cc:Work>
    </rdf:RDF>
  </metadata>
  <g
     inkscape:label="Layer 1"
     inkscape:groupmode="layer"
     id="layer1"
     transform="translate(-80.033664,-379.24802)">
    <path
       style="fill:#000000"
       d="m 249.24289,932.1436 c -15.40591,0.88337 -27.47279,-11.05884 -41.20416,-16.29155 -41.27054,-21.90147 -78.238,-55.89601 -97.38275,-99.06723 -12.063496,-30.35872 -4.41928,-63.64837 -4.67255,-95.31979 11.2663,-23.77916 -8.719854,-38.18546 -19.338232,-57.2523 -9.960256,-22.03796 -6.018176,-47.42281 -4.894235,-70.84151 -3.290613,-17.24056 12.253836,-25.07482 22.557647,-19.69545 -0.44718,-26.89889 0.96011,-54.93709 15.92332,-78.28719 10.14479,-20.46051 17.61296,-42.08873 32.99199,-59.44283 16.03365,-14.40778 31.10773,-32.00975 52.34299,-38.31497 19.0737,-13.42783 45.42884,-16.58307 67.98356,-18.03119 18.26674,-2.20256 30.48992,6.36177 44.34469,14.03388 20.05634,8.06261 39.57923,19.07042 52.44647,37.04379 14.29645,17.79284 27.83574,36.02746 36.269,57.92382 12.74858,36.89365 26.46033,77.3595 13.48912,116.21146 -5.70873,12.01331 21.14093,9.98437 10.09228,26.79614 -4.57732,24.31654 -13.22463,48.57928 -26.58269,69.4924 -16.98106,12.85163 -14.83136,36.47855 -23.31759,55.20994 -8.37746,26.9474 -21.5173,52.00533 -35.7959,76.17947 -5.7131,23.13412 -6.89805,50.34199 -27.73007,66.00147 -17.10755,14.89625 -37.06787,29.96788 -59.69053,33.92089 l -3.73276,-0.0892 -4.09957,-0.18005 -3e-5,0 z"
       id="path3336"
       inkscape:connector-curvature="0" />
    <path
       style="fill:#552200"
       d="m 258.78286,882.08195 c 1.88239,-10.18369 -1.64615,-32.57943 9.01028,-12.42515 -9.0536,-3.07561 -2.37228,23.35187 -0.50862,2.79202 12.13517,8.49453 -1.48793,-21.00335 9.99043,-1.85593 3.87468,15.57883 5.53299,-7.22947 3.43474,-8.49181 6.3973,-7.3341 12.79001,1.21399 17.08341,1.05054 5.74207,12.54439 11.16052,5.06412 3.99967,-3.04993 5.26566,-0.11545 10.48575,-1.28299 5.06712,-4.62336 16.85569,-2.49782 -8.59173,-8.95571 2.22181,-10.45019 -18.1668,-13.27625 4.79208,-14.16493 8.07393,-27.27062 10.89045,-8.24155 -4.11527,-30.37392 -18.35055,-17.66285 -21.71937,1.6381 -44.31273,6.688 -65.44779,-1.4327 -16.48795,3.57219 -45.64124,-27.4946 -44.55488,2.26141 2.68476,8.15992 -6.28861,5.92038 -4.67291,-0.64857 -11.31897,8.77144 14.38354,8.30099 7.61151,21.52606 12.51472,0.77823 14.71828,24.46636 -0.16703,19.86428 -2.91494,7.11242 2.81386,5.52493 0.46824,15.98187 11.69903,-6.65475 13.59601,-1.45087 16.62456,5.9457 4.46489,-10.73038 12.44157,12.13561 13.4139,-3.2007 1.40488,11.0202 3.54198,23.25433 9.43835,11.51687 2.53974,13.68181 12.94398,5.17334 4.74186,0.85004 2.02755,-8.15785 0.4802,-15.41453 7.00024,-6.63132 4.58201,-0.37819 2.69776,22.67817 7.53197,6.97347 -8.82649,3.97617 3.95233,-18.1413 5.12082,-2.29349 -0.90959,2.0657 -2.4449,22.79938 2.86894,11.27436 z"
       id="path3316"
       inkscape:connector-curvature="0" />
    <path
       style="fill:#000000"
       d="m 249.2931,849.10108 c -15.10545,-3.86776 -14.90637,-17.87764 -29.41947,-23.6289 -7.34683,-4.43614 -24.49304,-33.72349 -5.90514,-18.8855 17.47937,16.64743 45.15098,26.79999 68.63977,17.2991 10.50989,-6.05819 26.64462,-21.40181 18.6813,0.0331 -4.62806,11.82299 -17.16033,6.86538 -6.1735,15.85709 18.15264,-2.0261 -3.81146,17.39589 -4.49658,0.81874 -8.25543,4.46545 -14.03261,-14.74254 -24.1694,0.91638 -4.44263,2.77482 -12.11794,9.64022 -17.15698,7.58996 z"
       id="path3310"
       inkscape:connector-curvature="0" />
    <path
       style="fill:#552200"
       d="m 251.72186,797.12151 c 15.05474,-1.84036 48.65712,6.86668 53.09416,-6.99751 -9.88289,3.47872 -22.26047,-11.85492 -36.33769,-3.51333 -19.93723,0.46337 -41.11221,-7.15847 -60.68523,-0.50959 15.42067,1.12561 27.39107,15.4968 43.92876,11.02043 z"
       id="path3248"
       inkscape:connector-curvature="0" />
    <path
       style="fill:#552200"
       d="m 336.74601,776.17497 c -5.82856,-11.39556 -12.99099,-27.76439 1.0624,-25.32389 8.69997,-14.06563 -4.80604,19.41722 9.37167,2.81064 3.37681,-10.51202 5.66193,-6.77873 4.49083,-19.67599 -10.7005,-1.54932 -6.1509,-21.82147 6.12219,-15.3916 -4.51354,-7.16435 -12.15132,-21.61352 -1.07465,-13.74305 2.90338,-9.43696 15.32646,10.44432 12.61865,-8.56196 3.42218,-11.26395 -9.88299,-6.87301 3.90202,-12.43309 10.88829,-11.67623 -3.98669,-23.37745 -10.40816,-7.58001 -14.23967,12.12801 -50.80288,4.10246 -50.25178,-16.04059 12.33785,3.42959 21.85776,12.48739 37.45916,9.17556 12.55297,-0.95923 17.41659,-7.53047 5.02877,-11.32421 7.9194,-13.7495 -9.66587,-8.53468 -12.16156,-0.35522 -15.12197,-1.45007 -18.69308,-19.75792 -34.30422,-9.249 10.8228,-14.8286 32.45812,-9.06806 48.14503,-5.69546 -10.68195,-15.07463 22.97294,4.5106 23.18772,14.05121 11.50323,-6.67562 16.25654,-19.05691 0.69551,-17.85818 -10.1425,-19.44512 -32.69093,-17.49964 -52.09989,-12.23049 -11.17315,-2.88825 -42.05792,25.59262 -18.39762,11.35148 28.92896,-6.33143 -19.72429,3.84418 -8.77613,18.37021 9.87011,17.31714 6.31917,38.29031 12.05122,56.44526 11.30067,27.78026 -19.2464,37.77957 -40.34485,36.18743 -17.03472,7.45358 -28.05044,-23.12434 -45.51068,-6.65054 -30.38247,-6.00891 -5.63528,-40.37518 -5.39132,-59.63414 -8.45041,-13.18158 30.21021,-33.03981 3.21463,-36.42033 -5.21707,-6.49635 -12.51942,-20.71164 -19.99266,-6.38531 -12.89865,6.0496 -19.16352,-0.41869 -26.21737,-5.80618 -11.91276,14.49315 16.49045,27.7963 30.84843,21.67438 12.40383,-6.39877 26.61818,-1.20374 8.86956,7.33777 -16.75583,11.59299 -31.16982,5.03295 -48.57582,0.25274 1.60548,-14.84268 -21.95694,-22.70115 -16.52992,-33.32888 11.90645,7.00029 23.69832,-27.78319 38.74472,-10.01504 -27.24901,9.82113 17.19591,5.85245 25.72653,6.3323 -3.91935,-14.09384 28.39821,15.21518 13.66475,-2.85062 -16.87109,-12.7925 -38.13136,-21.55115 -59.42939,-22.53597 -14.26836,-2.20194 -27.35599,21.76118 -35.38088,5.83579 -9.0274,11.90097 16.35071,12.95254 0.97882,26.04199 -3.347,12.54436 12.1227,15.2483 12.42996,30.66267 13.65081,12.22982 -20.15547,20.35604 1.2712,29.20707 1.66515,7.81716 4.14723,19.88167 -6.42147,18.87651 4.81217,9.24262 2.95259,15.72291 14.00031,18.53968 2.3225,16.50133 11.08429,2.45766 10.72092,1.86236 13.79337,2.95736 -11.3878,21.22117 5.16245,13.00079 13.10164,-13.93541 24.6011,-1.5681 8.548,9.07234 -8.72862,3.90373 -11.43689,32.35843 -2.59845,25.23201 -0.89725,-14.31145 22.41765,-15.28224 28.59845,-20.43669 3.49046,0.12173 4.43217,4.87123 10.25014,3.98087 3.99084,3.58042 19.30998,-14.43809 19.45612,-0.29947 2.60573,-13.67806 23.67842,-11.80464 17.63133,1.41127 10.83409,4.61609 17.25809,-18.01821 23.62994,-6.25615 6.84851,-3.80433 6.41198,-10.37288 15.53248,0.29584 10.82756,5.78865 24.02277,10.46144 30.29152,20.41811 4.18929,4.71076 12.4856,9.69241 10.16139,-2.34422 z"
       id="path3238"
       inkscape:connector-curvature="0" />
    <path
       style="fill:#552200"
       d="m 280.90788,741.10108 c 4.18236,-12.47389 36.80352,-3.86531 22.71628,-19.78806 -22.92947,9.75389 -21.93079,-18.45676 -20.44821,-31.74415 2.40736,-18.71508 -7.66015,-38.43241 -2.15788,-56.64283 -8.68792,-16.34137 12.5575,-21.3442 20.77451,-24.26556 15.17929,7.4661 40.78988,-4.23477 59.47587,-1.89189 10.82781,-6.82851 16.75464,30.07577 19.63865,17.75029 -0.54924,-5.98264 4.23734,-14.05825 0.43246,-22.31523 -2.22824,-13.32554 29.70518,-10.45335 21.91472,-23.49207 -5.14919,-12.62106 -3.24386,-30.04056 -7.70923,-45.09406 -4.36473,-18.86924 -9.59639,-35.51983 -22.48947,-48.49306 -7.68649,-9.35356 -10.33178,-12.21148 -15.5578,-7.02338 -10.96468,-0.52491 -20.29581,-4.58635 -22.50294,-8.41627 -8.29135,-0.86257 -6.21222,-14.49668 -14.68304,-2.61399 6.78009,1.61109 20.1901,12.03876 2.9143,7.98144 -13.57687,2.99963 0.37392,-7.22575 -15.31968,-8.44864 6.33012,-10.0516 -12.44742,-5.1765 -8.72786,-18.08344 -9.23591,-1.3278 -14.3585,-8.06487 -18.83629,0.12199 -10.74191,-17.31369 22.53868,-0.3493 21.95083,-10.04109 8.19405,-6.071 -3.30129,-15.12961 -4.88234,-5.1675 -4.42736,-2.45588 -16.42836,9.95605 -18.36766,0.65888 8.90883,-6.90115 24.41011,-8.7584 7.85885,-15.72571 -5.62123,-4.10348 -13.30832,-5.98998 -12.84652,-11.41611 0.94023,11.49337 -8.20464,20.88435 1.09409,31.05345 -12.2626,-15.60635 -19.3129,15.05332 -1.10991,13.09704 9.5577,7.55635 28.91409,16.47153 12.11538,20.62644 -14.68312,-10.21748 -23.33524,-5.73877 -38.96034,-7.35278 12.67487,-4.80447 4.47196,-17.78793 -3.71337,-7.02366 -4.06661,14.71437 -24.10941,10.47998 -20.99679,0.18507 6.50091,0.13114 -13.66314,-15.09486 3.05396,-9.87613 11.50407,10.37337 12.68789,-8.08464 2.75465,-11.55082 -2.68555,-11.4971 -23.51699,1.94535 -2.96965,0.76912 -1.06338,7.03835 -12.17215,9.51691 -14.45005,3.1032 10.97952,5.57533 -9.07879,16.14062 5.8389,12.05447 8.07553,21.10324 -44.74937,10.34656 -15.4192,7.19174 5.75991,-14.34016 -17.54972,-11.46468 -19.81689,-8.237 12.56437,6.86464 4.00537,17.59546 -9.31956,12.49469 -0.59998,10.33686 -8.385,27.3422 -15.68266,33.10465 -11.69872,1.41182 11.47525,5.39018 -2.63135,14.30145 -7.26332,17.16984 -9.50898,38.16095 -24.44215,51.03185 -0.58178,11.04567 -8.23886,29.26237 4.86088,25.50545 -4.16681,14.51211 -18.42099,-1.24139 -22.4339,3.73245 5.13727,-19.18613 -5.66373,8.65745 -1.43294,16.49277 -1.32146,26.59355 -2.33571,53.82646 1.78188,80.0798 3.73131,-5.16827 4.3316,-13.20699 7.34655,0.17059 8.31188,-4.13936 6.18143,-41.3476 -1.22572,-52.09715 0.62746,-5.20065 -0.54408,-30.73101 5.90219,-23.79704 14.38345,8.02099 -1.47423,-18.27215 11.2196,-14.97341 9.87506,-0.35852 19.83062,4.78655 27.97857,-8.33396 14.94401,-9.98248 39.66242,1.24154 56.08539,7.67833 15.01782,6.28338 42.31013,19.53793 41.97437,34.69854 2.63875,16.3796 0.58003,39.41723 0.33538,58.52128 5.14078,10.5053 -8.70203,8.19913 -11.1031,13.08097 -6.08361,-5.65392 -10.69438,9.86431 -21.73277,12.6894 -16.21768,27.22699 28.00908,-3.78975 29.85097,19.65394 -2.05066,10.59991 17.46126,12.66836 22.10004,6.0757 z"
       id="path3182"
       inkscape:connector-curvature="0" />
    <path
       style="fill:#552200"
       d="m 395.79926,702.72864 c 10.12822,-23.41203 15.35849,-48.05189 18.15409,-73.36705 3.50709,-8.56939 -1.87766,-37.54112 -3.85526,-13.81935 -3.50849,15.33366 -8.52679,29.14287 -5.74999,40.09397 -6.17772,14.08727 -11.0281,36.77644 -10.17996,49.56856 l 1.6311,-2.47613 2e-5,0 z"
       id="path3162"
       inkscape:connector-curvature="0" />
  </g>
</svg>
