<?xml version="1.0" encoding="UTF-8" standalone="no"?>
<!-- Created with Inkscape (http://www.inkscape.org/) -->

<svg
   xmlns:dc="http://purl.org/dc/elements/1.1/"
   xmlns:cc="http://creativecommons.org/ns#"
   xmlns:rdf="http://www.w3.org/1999/02/22-rdf-syntax-ns#"
   xmlns:svg="http://www.w3.org/2000/svg"
   xmlns="http://www.w3.org/2000/svg"
   xmlns:xlink="http://www.w3.org/1999/xlink"
   xmlns:sodipodi="http://sodipodi.sourceforge.net/DTD/sodipodi-0.dtd"
   xmlns:inkscape="http://www.inkscape.org/namespaces/inkscape"
   width="311.75336"
   height="498.41931"
   id="svg2"
   version="1.1"
   inkscape:version="0.48.1 r9760"
   sodipodi:docname="idris.svg">
  <defs
     id="defs4">
    <linearGradient
       id="linearGradient4082">
      <stop
         style="stop-color:#ffffff;stop-opacity:1;"
         offset="0"
         id="stop4084" />
      <stop
         style="stop-color:#ffff00;stop-opacity:1;"
         offset="1"
         id="stop4086" />
    </linearGradient>
    <linearGradient
       inkscape:collect="always"
       id="linearGradient4062">
      <stop
         style="stop-color:#808080;stop-opacity:1;"
         offset="0"
         id="stop4064" />
      <stop
         style="stop-color:#808080;stop-opacity:0;"
         offset="1"
         id="stop4066" />
    </linearGradient>
    <linearGradient
       inkscape:collect="always"
       id="linearGradient4054">
      <stop
         style="stop-color:#808080;stop-opacity:1;"
         offset="0"
         id="stop4056" />
      <stop
         style="stop-color:#808080;stop-opacity:0;"
         offset="1"
         id="stop4058" />
    </linearGradient>
    <linearGradient
       inkscape:collect="always"
       xlink:href="#linearGradient4054"
       id="linearGradient4060"
       x1="275.44377"
       y1="738.50938"
       x2="409.74536"
       y2="738.50938"
       gradientUnits="userSpaceOnUse" />
    <linearGradient
       inkscape:collect="always"
       xlink:href="#linearGradient4062"
       id="linearGradient4068"
       x1="269.70948"
       y1="629.01819"
       x2="403.95274"
       y2="629.01819"
       gradientUnits="userSpaceOnUse" />
    <linearGradient
       inkscape:collect="always"
       xlink:href="#linearGradient4062"
       id="linearGradient4070"
       x1="250.52665"
       y1="664.75022"
       x2="426.08513"
       y2="664.75022"
       gradientUnits="userSpaceOnUse" />
    <linearGradient
       inkscape:collect="always"
       xlink:href="#linearGradient4062"
       id="linearGradient4072"
       x1="252.0903"
       y1="686.74764"
       x2="423.63226"
       y2="686.74764"
       gradientUnits="userSpaceOnUse" />
  </defs>
  <sodipodi:namedview
     id="base"
     pagecolor="#ffffff"
     bordercolor="#666666"
     borderopacity="1.0"
     inkscape:pageopacity="0.0"
     inkscape:pageshadow="2"
     inkscape:zoom="1.63"
     inkscape:cx="315.60613"
     inkscape:cy="251.33273"
     inkscape:document-units="px"
     inkscape:current-layer="layer1"
     showgrid="false"
     inkscape:window-width="1813"
     inkscape:window-height="1033"
     inkscape:window-x="47"
     inkscape:window-y="0"
     inkscape:window-maximized="0"
     fit-margin-top="0"
     fit-margin-left="0"
     fit-margin-right="0"
     fit-margin-bottom="0" />
  <metadata
     id="metadata7">
    <rdf:RDF>
      <cc:Work
         rdf:about="">
        <dc:format>image/svg+xml</dc:format>
        <dc:type
           rdf:resource="http://purl.org/dc/dcmitype/StillImage" />
        <dc:title></dc:title>
      </cc:Work>
    </rdf:RDF>
  </metadata>
  <g
     inkscape:label="Layer 1"
     inkscape:groupmode="layer"
     id="layer1"
     transform="translate(-192.8276,-293.38639)">
    <path
       style="fill:#000000;fill-opacity:1"
       d="m 324.35048,791.48327 c -20.52026,-2.08308 -41.55486,1.52545 -61.8093,-2.37118 4.32735,-16.09333 3.79076,-35.35707 3.86055,-53.03239 0.34332,-15.10568 5.87553,-36.39252 -17.0895,-33.12027 -8.037,-8.58434 -8.85255,-32.18021 -7.50077,-46.21935 13.76578,-6.6602 25.66652,-15.5981 17.82753,-32.43862 2.14376,-11.66088 27.49756,-12.17635 22.00825,-30.71827 8.08298,-25.23739 -23.52961,-16.43932 -37.61891,-21.57313 -9.70816,-5.76356 -15.21515,3.03471 -23.75729,4.41458 -13.21595,-0.7305 -18.52936,-8.10414 -8.86833,-16.57952 -7.82321,-19.03557 -0.0952,-43.17772 -18.50272,-56.72461 5.89573,-12.01919 23.06466,-9.34622 34.86779,-11.05626 6.17616,11.70377 4.63274,29.45866 5.90842,43.64497 4.45342,13.88283 34.26097,9.69701 44.6236,4.27785 -1.33065,-20.24084 18.08385,-35.20271 15.72271,-55.63507 -0.16864,-19.26009 9.01671,-38.36973 3.68892,-57.57444 -18.20883,4.04616 -26.39482,28.30339 -46.14955,28.26769 -17.65574,-5.60758 -43.53849,2.16581 -54.74558,-15.54195 -3.302,-19.62095 25.44337,-14.84392 34.25173,-27.50394 21.70604,-11.55375 -0.51321,-28.31382 -5.64157,-39.74744 8.67346,-3.47155 -1.5904,-13.69011 12.1545,-13.0567 8.23904,-7.70161 -17.24603,-15.99279 -10.34089,-25.88116 -17.26302,-16.77068 29.49719,-8.82929 29.25021,5.83466 10.26024,-18.19867 42.27951,-5.23942 38.85677,-30.96343 3.71193,-11.00591 34.01636,-22.95847 22.43757,-3.11895 9.23954,4.05237 16.91403,6.91691 5.47459,14.1923 13.40752,6.02095 -0.34113,21.59536 16.80334,24.76753 18.05547,4.59378 20.50271,25.02455 17.20399,38.17957 -8.93779,8.5599 -17.23483,22.02088 -7.49169,30.40357 -17.92436,13.43105 20.83002,28.8956 -5.84873,35.38183 1.38129,10.34832 12.24614,23.07314 -2.14263,27.24879 0.21534,12.64894 22.8921,12.92136 31.71416,21.41783 15.64703,-2.53982 9.50295,-40.92336 35.4359,-29.00655 13.93229,8.00756 32.35699,-17.22064 45.91389,2.68124 14.68742,11.87106 28.07632,24.57096 37.28482,40.76594 7.64453,13.23078 16.01689,30.56574 8.66485,46.23675 -11.1259,7.40524 -31.17118,-28.66072 -23.54163,-3.1006 -0.89812,21.68601 -34.85114,-21.70899 -30.30859,8.28829 0.96341,7.66131 -5.05393,30.92888 -11.84298,14.93334 -5.61728,-8.9501 -13.34758,-19.24529 -21.77015,-8.35778 -13.05314,-8.16383 -9.57094,0.60212 -2.7015,8.56621 -7.70276,7.37544 8.89734,19.29988 -6.4769,22.40827 -2.67468,11.10784 14.67082,10.04546 9.13047,23.28227 -8.06304,24.73487 35.47099,20.38601 23.90687,46.43204 7.70151,18.87854 -9.8152,27.25369 -20.07989,36.1772 0.23941,24.69076 -1.69937,49.54142 1.261,74.09908 9.62636,20.20774 -27.91095,7.5982 -38.93587,11.07165 -18.36317,-0.11845 -36.73816,-0.1097 -55.08746,0.34816 z"
       id="path4041" />
    <path
       style="fill:url(#linearGradient4060);fill-opacity:1"
       d="m 280.86126,784.53606 c 39.84432,-1.43005 79.82336,0.84445 119.61237,-1.53222 18.55193,2.69417 2.8134,-31.87282 6.94249,-43.53019 -0.12491,-16.94276 5.73103,-46.11415 -19.36135,-43.90347 -19.23876,-1.7519 -40.43456,-5.09333 -60.22509,-2.94636 -16.94854,1.3325 -39.70203,-1.49162 -51.69733,12.36011 -1.34466,26.09852 -0.23837,53.01005 -0.60796,79.36412 1.38435,1.38535 3.81879,0.46115 5.33687,0.18801 z"
       id="path4039" />
    <path
       style="fill:url(#linearGradient4072);fill-opacity:1"
       d="m 263.13226,695.40954 c 17.90451,-6.854 37.46853,-8.36504 56.69665,-9.65786 17.90819,-4.77628 36.31488,-0.83508 55.65688,-0.38681 17.53215,-4.46388 35.49058,16.85537 48.14647,4.74302 -13.44265,-7.69056 -32.57869,-12.67095 -49.17221,-13.15702 -38.29796,-0.55095 -77.69859,-0.70208 -114.26436,11.14752 -12.49876,2.69668 -9.77975,12.06988 2.93657,7.31115 z"
       id="path4037" />
    <path
       style="fill:url(#linearGradient4070);fill-opacity:1"
       d="m 263.48587,682.1778 c 19.22122,-5.05118 39.15736,-8.29328 58.92615,-11.20068 20.371,1.30777 41.48902,-4.63257 61.16051,0.61401 13.4145,-0.91342 33.8716,14.06074 42.5126,6.74794 -4.56643,-8.11526 3.90207,-24.06406 -7.24999,-27.29052 -14.61136,-7.72414 -32.68672,-5.11645 -46.64011,-7.39709 -37.38028,0.54889 -75.83088,0.0123 -111.74364,11.6672 -11.90129,1.17213 -15.57285,42.91582 3.03448,26.85914 z"
       id="path4035" />
    <path
       style="fill:url(#linearGradient4068);fill-opacity:1"
       d="m 285.83292,642.72241 c 24.00393,-5.00265 49.03055,-4.12007 73.50322,-5.11114 17.038,-1.51724 51.48633,13.20059 43.40849,-16.53205 -12.95908,-12.00015 -35.10085,-3.99667 -51.50483,-7.3634 -9.60727,1.85324 -37.94342,-4.85885 -37.14653,4.18285 3.44402,13.0691 -27.10327,8.8877 -33.58799,1.84084 -15.66489,2.99782 -14.61356,33.74124 5.32764,22.9829 z"
       id="path4033" />
    <path
       style="fill:#ff0000;fill-opacity:1"
       d="m 305.80743,616.21191 c 0.4145,-23.17368 34.78031,-16.21361 41.96398,-37.04292 12.18152,-14.57396 14.69971,-49.74533 -7.25517,-55.11607 -23.78593,-0.86258 -12.08215,25.69284 -9.30152,38.82234 -2.75949,11.16134 -5.91989,20.72155 0.76547,24.73234 -15.2462,2.31088 -46.28456,3.80274 -45.10048,25.02867 5.84518,0.11661 9.666,7.10989 8.01535,-5.94305 5.94741,-7.44022 7.9264,27.48676 10.91237,9.51869 z"
       id="path4031" />
    <path
       style="fill:#000000;fill-opacity:1"
       d="m 334.83226,579.89839 c 0.82065,-5.57995 7.66457,-14.68901 3.6,-18.8 13.04413,-6.04183 -10.32476,-13.21047 5.04663,-17.27249 3.64758,-11.97192 -19.32539,-2.61347 -4.45412,-10.31783 16.33744,1.26124 9.29634,37.68346 -2.27902,47.59032 l -1.91349,-1.2 0,0 z"
       id="path4029" />
    <path
       style="fill:#ff0000;fill-opacity:1"
       d="m 389.86533,607.34839 c 2.5934,-18.19833 1.02748,-38.00058 -4.85691,-55.70257 -10.57053,-21.05225 -13.45727,-50.11467 -37.7997,-60.67395 -12.08715,-6.06723 -35.34644,-1.89433 -18.75122,12.73383 -2.28298,15.27363 14.19297,8.72198 23.11531,13.3753 15.85291,12.21999 17.57429,39.58079 7.54852,56.04514 -5.45475,16.64567 -29.92256,27.69974 -36.45723,33.32697 21.96117,0.71266 44.16622,0.71292 65.95859,1.97102 l 1.24264,-1.07574 0,0 z"
       id="path4027" />
    <path
       style="fill:#ff0000;fill-opacity:1"
       d="m 403.00807,590.95826 c -0.44723,-13.27889 -4.61133,-25.14759 -6.47923,-36.92025 -12.34039,-9.68386 2.38874,18.67789 0.035,25.64832 -0.0667,4.01847 0.32896,25.11618 6.44426,11.27193 z"
       id="path4025" />
    <path
       style="fill:#ff0000;fill-opacity:1"
       d="m 294.69709,592.53627 c 6.27984,-3.65452 27.96732,-12.47291 8.53364,-11.01888 -11.69969,-7.14955 -22.48091,18.70487 -8.53364,11.01888 z"
       id="path4023" />
    <path
       style="fill:#ff0000;fill-opacity:1"
       d="m 319.99122,575.84839 c 10.31312,-20.98555 -9.62699,-30.26863 -27.68313,-24.37172 -10.96521,-0.48519 -8.66487,29.19464 4.17863,25.46362 7.62382,-0.5784 17.17689,3.37481 23.5045,-1.0919 z"
       id="path4021" />
    <path
       style="fill:#ff0000;fill-opacity:1"
       d="m 222.4726,569.79076 c 6.88363,-19.7788 33.09977,1.89104 48.87288,-1.92223 14.47495,6.54134 11.81008,-27.86419 -3.50585,-17.7501 -16.15556,0.0535 -49.04689,5.93747 -42.13185,-20.71552 1.07696,-15.19047 4.27184,-37.33008 -18.00885,-28.69604 3.70855,6.26355 -6.55752,9.43234 5.03742,13.58602 0.72284,18.54667 7.19465,39.53 4.09591,55.6055 1.47583,1.52327 4.25675,1.57688 5.64034,-0.10763 z"
       id="path4019" />
    <path
       style="fill:#000000;fill-opacity:1"
       d="m 219.29893,515.43172 c -4.87447,-21.34716 8.9619,-6.98638 0,0 z"
       id="path4017" />
    <path
       style="fill:#ff0000;fill-opacity:1"
       d="m 440.197,567.60496 c -2.00288,-10.48413 -7.5199,-37.04018 12.62121,-26.38745 6.94803,8.41511 23.69017,15.41879 12.61599,-1.50631 2.68978,-17.95769 23.2027,0.61156 28.53749,8.11342 2.20001,-17.87187 -13.54831,-35.51614 -24.05985,-49.72873 -10.94239,-9.05719 -35.41794,-41.35246 -43.49385,-17.94944 -5.83935,21.79806 -24.53558,37.67582 -45.51328,43.68433 4.02292,12.33639 24.42613,36.55045 33.78488,16.57315 11.75567,-7.5134 30.2202,24.13925 9.44267,8.75726 -14.177,-14.0478 -20.85195,27.55911 -4.34473,6.14149 8.21587,-7.33836 17.19096,23.9539 20.40947,12.30228 z"
       id="path4015" />
    <path
       style="fill:#ff0000;fill-opacity:1"
       d="m 315.71389,545.04794 c 0.68184,-11.15754 5.32585,-29.02232 -12.75451,-22.02214 -19.61962,-7.25424 -24.30644,32.58895 -0.54906,22.85976 4.44083,-0.12794 8.90409,-0.12935 13.30357,-0.83762 z"
       id="path4013" />
    <path
       style="fill:#ff0000;fill-opacity:1"
       d="m 325.18428,516.05522 c 3.02608,-13.00307 -10.84335,-34.44337 -22.41877,-15.43315 -9.67069,6.61095 -13.55412,21.76516 3.56851,16.97722 6.26584,-0.17774 12.76795,0.25254 18.85026,-1.54407 z"
       id="path4011" />
    <path
       style="fill:#ff0000;fill-opacity:1"
       d="m 379.19157,512.19435 c -8.41523,-5.0546 -1.67854,10.00144 0,0 z"
       id="path4009" />
    <path
       style="fill:#ff0000;fill-opacity:1"
       d="m 392.18162,512.51332 c 15.24552,-7.01349 37.09633,-31.90725 10.63793,-40.33228 -7.89402,8.14743 -14.99765,25.6113 -22.65699,35.70182 2.09689,5.0348 6.63074,8.36855 12.01906,4.63046 z"
       id="path4007" />
    <path
       style="fill:#ff0000;fill-opacity:1"
       d="m 305.18843,490.62483 c 14.13218,-0.33038 14.64987,-24.90718 23.54318,-6.77619 10.01849,-15.59378 8.7669,-36.53956 7.98573,-54.74326 -0.0622,-23.25051 -7.9239,-10.60197 -11.09604,-8.02152 -13.86357,-13.49372 -30.3637,21.11892 -9.71901,14.98185 10.80312,-7.99123 22.7101,1.25986 12.09803,9.13734 -5.88845,-16.27729 -31.80279,4.99497 -20.51766,12.32153 11.52973,0.16844 27.39974,-9.47972 19.88818,9.92691 -5.90245,15.18443 -6.06511,-17.37621 -19.43924,-3.87673 -9.26974,8.08664 -3.13311,21.81696 -6.49574,29.34935 l 3.75258,-2.29928 -1e-5,0 z"
       id="path4005" />
    <path
       style="fill:#ff0000;fill-opacity:1"
       d="m 342.63226,465.15741 c -3.49504,-9.6373 -3.44948,7.62933 0,0 z"
       id="path4003" />
    <path
       style="fill:#ff0000;fill-opacity:1"
       d="m 255.38128,447.17037 c 16.18483,-13.17797 32.60965,-27.79132 53.87908,-32.24634 19.5298,0.90092 13.67453,-26.7556 0.32368,-28.91574 -14.97794,-2.6109 -21.63363,30.91463 -38.62859,26.13159 8.82367,-9.4683 30.1898,-24.37499 6.8258,-28.36169 -11.70953,-3.64555 -12.8885,-20.0923 -14.50903,-26.52996 8.3541,-10.49259 19.37898,-7.45005 30.17763,-10.1729 5.68111,-4.36675 19.99537,13.85727 13.89495,-4.09157 -9.66123,-21.00024 -43.71008,-11.10505 -49.00773,8.69131 -5.88049,13.89694 7.83009,25.61583 3.73096,40.05688 -5.56498,9.53305 -21.86398,13.44388 -20.91637,25.52794 -4.57464,20.28524 -52.97578,0.0763 -32.63061,24.6312 16.34009,5.90033 56.45406,-3.90275 42.85146,-26.47679 -5.36973,-13.87828 16.54796,0.95942 8.97507,10.77784 15.17711,-6.71493 33.38465,-18.44606 45.2365,-30.09375 13.4217,10.99281 -21.36674,15.92773 -27.45182,25.04874 -8.85581,9.6984 -33.50794,15.8412 -34.28855,26.5948 3.83095,0.60222 7.7802,0.36733 11.53757,-0.57156 z"
       id="path4001" />
    <path
       style="fill:#000000;fill-opacity:1"
       d="m 211.64283,437.61112 c -1.06945,-12.35979 11.2863,4.87878 0,0 z"
       id="path3999" />
    <path
       style="fill:#000000;fill-opacity:1"
       d="m 244.29893,426.43172 c -0.5121,-15.23664 13.06996,0.90439 0,0 z"
       id="path3997" />
    <path
       style="fill:#ff0000;fill-opacity:1"
       d="m 344.05805,436.43117 c -1.34367,-10.65888 -8.91334,6.70762 0,0 z"
       id="path3995" />
    <path
       style="fill:#ff0000;fill-opacity:1"
       d="m 339.07947,410.01298 c -4.90958,-2.24102 0.047,5.06748 0,0 z"
       id="path3993" />
    <path
       style="fill:#ff0000;fill-opacity:1"
       d="m 336.61024,402.13271 c 10.08735,-14.32436 8.30541,-48.39482 -12.1373,-48.91202 -5.73921,12.35458 -19.44308,6.92369 -20.2687,22.36428 15.87931,2.00288 24.68558,14.17686 26.04122,29.0056 2.05731,6.81999 5.00492,-1.69413 6.36478,-2.45786 z"
       id="path3991" />
    <path
       style="fill:#ffff00;fill-opacity:1"
       d="m 256.97135,386.77009 c 8.67947,-12.54616 -30.02041,-21.52243 -16.36296,-3.23096 5.95186,0.0562 13.30969,-1.80582 7.33769,7.10958 2.96263,3.01564 9.00086,0.60439 9.02527,-3.87862 z"
       id="path3989" />
    <path
       style="fill:#ffff00;fill-opacity:1;opacity:1"
       d="m 294.63226,375.31788 c 24.27327,-20.666 -39.9864,-27.46354 -20.36623,-0.8836 3.9141,7.52171 14.90943,5.14007 20.36623,0.8836 z"
       id="path3987" />
    <path
       style="fill:#000000;fill-opacity:1"
       d="m 279.28725,373.26965 c -3.44258,-16.43804 15.4204,4.91362 0,0 z"
       id="path3985" />
    <path
       style="fill:#ff0000;fill-opacity:1"
       d="m 349.45181,376.84839 c -4.93252,-7.63607 -3.4857,8.09617 0,0 z"
       id="path3983" />
    <path
       style="fill:#ff0000;fill-opacity:1"
       d="m 251.13226,366.89864 c -1.68719,-12.78599 -25.2834,4.55838 -7.04324,1.51579 l 4.49704,-0.67569 2.5462,-0.8401 z"
       id="path3981" />
    <path
       style="fill:#ff0000;fill-opacity:1"
       d="m 350.68059,366.26034 c 5.2744,-7.77928 -18.43166,-10.99071 -4.99954,0.50485 l 1.91301,1.3332 3.08653,-1.83805 0,0 z"
       id="path3979" />
    <path
       style="fill:#ff0000;fill-opacity:1"
       d="m 252.19611,354.43364 c 5.91039,-10.9677 -22.09698,-36.47439 -15.15279,-16.19382 4.63429,1.05847 15.46186,32.50892 15.15279,16.19382 z"
       id="path3977" />
    <path
       style="fill:#ff0000;fill-opacity:1"
       d="m 316.70596,354.36144 c 4.22477,-4.85428 17.69524,-14.83066 2.22802,-11.68591 -5.8148,-4.6541 14.71122,-17.38727 -3.67801,-16.09629 -1.31603,-7.72232 4.28123,-14.23173 -5.62371,-18.2702 -6.72996,-6.94515 -12.73384,19.79602 -0.67605,23.83087 6.27892,2.2543 1.46495,38.06042 7.74975,22.22153 z"
       id="path3975" />
    <path
       style="fill:#ff0000;fill-opacity:1"
       d="m 302.63226,355.56701 c -5.54684,-8.99724 -4.18867,6.65123 0,0 z"
       id="path3973" />
    <path
       style="fill:#ff0000;fill-opacity:1"
       d="m 343.07921,353.45375 c -2.54644,-14.5185 -9.6719,10.27442 0,0 z"
       id="path3052" />
  </g>
</svg>
